<mxfile host="app.diagrams.net" modified="2023-11-06T10:20:17.343Z" agent="Mozilla/5.0 (Windows NT 10.0; Win64; x64) AppleWebKit/537.36 (KHTML, like Gecko) Chrome/118.0.0.0 Safari/537.36" etag="mQA8O2VqAYp6IAKQN9C_" version="22.0.8" type="device">
  <diagram id="kI1pdYUdNZgvQSS5ljfe" name="Page">
    <mxGraphModel dx="1105" dy="578" grid="1" gridSize="10" guides="1" tooltips="1" connect="1" arrows="1" fold="1" page="1" pageScale="1" pageWidth="827" pageHeight="1169" background="none" math="0" shadow="0">
      <root>
        <mxCell id="0" />
        <mxCell id="1" parent="0" />
        <mxCell id="3_fbX6zJ1j63LrsjDhZ5-146" style="edgeStyle=orthogonalEdgeStyle;rounded=0;orthogonalLoop=1;jettySize=auto;html=1;exitX=0.5;exitY=1;exitDx=0;exitDy=0;entryX=0.5;entryY=0;entryDx=0;entryDy=0;strokeColor=#E07A5F;fontColor=default;fillColor=#F2CC8F;fontFamily=Architects Daughter;fontSource=https%3A%2F%2Ffonts.googleapis.com%2Fcss%3Ffamily%3DArchitects%2BDaughter;fontSize=16;fontStyle=1;labelBackgroundColor=none;sketch=1;curveFitting=1;jiggle=2;" parent="1" source="kK0tL4RHE-ViyDlnTzVx-1" target="BQeTc1KD_16eWAKUf4Th-6" edge="1">
          <mxGeometry relative="1" as="geometry" />
        </mxCell>
        <mxCell id="kK0tL4RHE-ViyDlnTzVx-1" value="" style="ellipse;shape=endState;fillColor=#F2CC8F;strokeColor=#E07A5F;fontSize=16;fontFamily=Architects Daughter;labelBackgroundColor=none;fontColor=#393C56;rounded=1;fontStyle=1;labelBorderColor=none;whiteSpace=wrap;html=1;fontSource=https%3A%2F%2Ffonts.googleapis.com%2Fcss%3Ffamily%3DArchitects%2BDaughter;sketch=1;curveFitting=1;jiggle=2;" parent="1" vertex="1">
          <mxGeometry x="200.06" y="80" width="41.38" height="40" as="geometry" />
        </mxCell>
        <mxCell id="BQeTc1KD_16eWAKUf4Th-6" value="Run main()" style="rounded=1;arcSize=40;fontColor=#393C56;fillColor=#F2CC8F;strokeColor=#E07A5F;fontSize=16;fontFamily=Architects Daughter;labelBackgroundColor=none;fontStyle=1;labelBorderColor=none;whiteSpace=wrap;html=1;fontSource=https%3A%2F%2Ffonts.googleapis.com%2Fcss%3Ffamily%3DArchitects%2BDaughter;sketch=1;curveFitting=1;jiggle=2;" parent="1" vertex="1">
          <mxGeometry x="160.75" y="160" width="120" height="40" as="geometry" />
        </mxCell>
        <mxCell id="BQeTc1KD_16eWAKUf4Th-7" value="" style="edgeStyle=orthogonalEdgeStyle;verticalAlign=bottom;endArrow=open;endSize=8;strokeColor=#E07A5F;rounded=1;fontSize=16;curved=1;entryX=0.5;entryY=0;entryDx=0;entryDy=0;fontFamily=Architects Daughter;labelBackgroundColor=none;fontColor=default;fontStyle=1;labelBorderColor=none;html=1;fontSource=https%3A%2F%2Ffonts.googleapis.com%2Fcss%3Ffamily%3DArchitects%2BDaughter;sketch=1;curveFitting=1;jiggle=2;" parent="1" source="BQeTc1KD_16eWAKUf4Th-6" target="BQeTc1KD_16eWAKUf4Th-8" edge="1">
          <mxGeometry relative="1" as="geometry">
            <mxPoint x="215.25" y="330" as="targetPoint" />
          </mxGeometry>
        </mxCell>
        <mxCell id="lhAk6RJFCS4VyfI1gilV-5" style="edgeStyle=orthogonalEdgeStyle;rounded=0;sketch=1;hachureGap=4;jiggle=2;curveFitting=1;orthogonalLoop=1;jettySize=auto;html=1;exitX=0.5;exitY=1;exitDx=0;exitDy=0;entryX=0.5;entryY=0;entryDx=0;entryDy=0;fontFamily=Architects Daughter;fontSource=https%3A%2F%2Ffonts.googleapis.com%2Fcss%3Ffamily%3DArchitects%2BDaughter;fontSize=16;fontStyle=1;labelBackgroundColor=none;strokeColor=#E07A5F;fontColor=default;" parent="1" source="BQeTc1KD_16eWAKUf4Th-8" target="lhAk6RJFCS4VyfI1gilV-3" edge="1">
          <mxGeometry relative="1" as="geometry" />
        </mxCell>
        <mxCell id="BQeTc1KD_16eWAKUf4Th-8" value="Run Controller" style="rounded=1;arcSize=50;fontColor=#393C56;fillColor=#F2CC8F;strokeColor=#E07A5F;fontSize=16;fontFamily=Architects Daughter;labelBackgroundColor=none;fontStyle=1;labelBorderColor=none;whiteSpace=wrap;html=1;fontSource=https%3A%2F%2Ffonts.googleapis.com%2Fcss%3Ffamily%3DArchitects%2BDaughter;sketch=1;curveFitting=1;jiggle=2;" parent="1" vertex="1">
          <mxGeometry x="160.75" y="240" width="120" height="40" as="geometry" />
        </mxCell>
        <mxCell id="BQeTc1KD_16eWAKUf4Th-10" value="Print Log in Menu" style="rounded=1;arcSize=40;fontColor=#393C56;fillColor=#F2CC8F;strokeColor=#E07A5F;fontSize=16;fontFamily=Architects Daughter;labelBackgroundColor=none;fontStyle=1;labelBorderColor=none;whiteSpace=wrap;html=1;fontSource=https%3A%2F%2Ffonts.googleapis.com%2Fcss%3Ffamily%3DArchitects%2BDaughter;sketch=1;curveFitting=1;jiggle=2;" parent="1" vertex="1">
          <mxGeometry x="160.75" y="400" width="120" height="40" as="geometry" />
        </mxCell>
        <mxCell id="BQeTc1KD_16eWAKUf4Th-11" value="" style="edgeStyle=orthogonalEdgeStyle;verticalAlign=bottom;endArrow=open;endSize=8;strokeColor=#E07A5F;rounded=1;fontSize=16;curved=1;entryX=0.5;entryY=0;entryDx=0;entryDy=0;fontFamily=Architects Daughter;labelBackgroundColor=none;fontColor=default;fontStyle=1;labelBorderColor=none;html=1;fontSource=https%3A%2F%2Ffonts.googleapis.com%2Fcss%3Ffamily%3DArchitects%2BDaughter;sketch=1;curveFitting=1;jiggle=2;" parent="1" source="BQeTc1KD_16eWAKUf4Th-10" target="BQeTc1KD_16eWAKUf4Th-12" edge="1">
          <mxGeometry relative="1" as="geometry">
            <mxPoint x="215.25" y="655" as="targetPoint" />
          </mxGeometry>
        </mxCell>
        <mxCell id="BQeTc1KD_16eWAKUf4Th-12" value="Choose User Type" style="rounded=1;arcSize=40;fontColor=#393C56;fillColor=#F2CC8F;strokeColor=#E07A5F;fontSize=16;fontFamily=Architects Daughter;labelBackgroundColor=none;fontStyle=1;labelBorderColor=none;whiteSpace=wrap;html=1;fontSource=https%3A%2F%2Ffonts.googleapis.com%2Fcss%3Ffamily%3DArchitects%2BDaughter;sketch=1;curveFitting=1;jiggle=2;" parent="1" vertex="1">
          <mxGeometry x="160.5" y="480" width="120" height="40" as="geometry" />
        </mxCell>
        <mxCell id="BQeTc1KD_16eWAKUf4Th-13" value="" style="edgeStyle=orthogonalEdgeStyle;verticalAlign=bottom;endArrow=open;endSize=8;strokeColor=#E07A5F;rounded=1;fontSize=16;curved=1;entryX=0.5;entryY=0;entryDx=0;entryDy=0;fontFamily=Architects Daughter;labelBackgroundColor=none;fontColor=default;fontStyle=1;labelBorderColor=none;html=1;fontSource=https%3A%2F%2Ffonts.googleapis.com%2Fcss%3Ffamily%3DArchitects%2BDaughter;sketch=1;curveFitting=1;jiggle=2;" parent="1" source="BQeTc1KD_16eWAKUf4Th-24" target="BQeTc1KD_16eWAKUf4Th-36" edge="1">
          <mxGeometry relative="1" as="geometry">
            <mxPoint x="215.25" y="770" as="targetPoint" />
          </mxGeometry>
        </mxCell>
        <mxCell id="SfQGXnOb-Ir7KjK6WU2_-25" value="" style="edgeStyle=orthogonalEdgeStyle;rounded=1;orthogonalLoop=1;jettySize=auto;entryX=1;entryY=0.5;entryDx=0;entryDy=0;fontFamily=Architects Daughter;fontSize=16;labelBackgroundColor=none;strokeColor=#E07A5F;fontColor=default;fontStyle=1;labelBorderColor=none;html=1;fontSource=https%3A%2F%2Ffonts.googleapis.com%2Fcss%3Ffamily%3DArchitects%2BDaughter;sketch=1;curveFitting=1;jiggle=2;" parent="1" source="BQeTc1KD_16eWAKUf4Th-36" target="BQeTc1KD_16eWAKUf4Th-24" edge="1">
          <mxGeometry relative="1" as="geometry">
            <mxPoint x="376.25" y="550" as="targetPoint" />
            <Array as="points">
              <mxPoint x="336" y="660" />
              <mxPoint x="336" y="580" />
            </Array>
          </mxGeometry>
        </mxCell>
        <mxCell id="SfQGXnOb-Ir7KjK6WU2_-26" value="No" style="edgeLabel;align=center;verticalAlign=middle;resizable=0;points=[];fontFamily=Architects Daughter;fontSize=16;labelBackgroundColor=none;fontColor=#393C56;rounded=1;fontStyle=1;labelBorderColor=none;html=1;fontSource=https%3A%2F%2Ffonts.googleapis.com%2Fcss%3Ffamily%3DArchitects%2BDaughter;sketch=1;curveFitting=1;jiggle=2;" parent="SfQGXnOb-Ir7KjK6WU2_-25" vertex="1" connectable="0">
          <mxGeometry x="-0.803" relative="1" as="geometry">
            <mxPoint x="46" as="offset" />
          </mxGeometry>
        </mxCell>
        <mxCell id="BQeTc1KD_16eWAKUf4Th-36" value="Successful?" style="rhombus;fontColor=#393C56;fillColor=#F2CC8F;strokeColor=#E07A5F;fontSize=16;fontFamily=Architects Daughter;labelBackgroundColor=none;rounded=1;fontStyle=1;labelBorderColor=none;whiteSpace=wrap;html=1;fontSource=https%3A%2F%2Ffonts.googleapis.com%2Fcss%3Ffamily%3DArchitects%2BDaughter;sketch=1;curveFitting=1;jiggle=2;" parent="1" vertex="1">
          <mxGeometry x="160" y="640" width="120" height="80" as="geometry" />
        </mxCell>
        <mxCell id="BQeTc1KD_16eWAKUf4Th-38" value="Student" style="edgeStyle=orthogonalEdgeStyle;align=left;verticalAlign=top;endArrow=open;endSize=8;strokeColor=#E07A5F;rounded=1;fontSize=16;curved=1;fontFamily=Architects Daughter;labelBackgroundColor=none;fontColor=default;fontStyle=1;labelBorderColor=none;html=1;exitX=0.5;exitY=1;exitDx=0;exitDy=0;fontSource=https%3A%2F%2Ffonts.googleapis.com%2Fcss%3Ffamily%3DArchitects%2BDaughter;sketch=1;curveFitting=1;jiggle=2;" parent="1" source="SfQGXnOb-Ir7KjK6WU2_-12" target="cQG9Z8V1ExgYOR1QqFan-4" edge="1">
          <mxGeometry x="-0.4286" relative="1" as="geometry">
            <mxPoint x="215.25" y="980" as="targetPoint" />
            <mxPoint as="offset" />
          </mxGeometry>
        </mxCell>
        <mxCell id="SfQGXnOb-Ir7KjK6WU2_-2" value="" style="edgeStyle=orthogonalEdgeStyle;verticalAlign=bottom;endArrow=open;endSize=8;strokeColor=#E07A5F;rounded=1;fontSize=16;curved=1;fontFamily=Architects Daughter;labelBackgroundColor=none;fontColor=default;fontStyle=1;labelBorderColor=none;html=1;fontSource=https%3A%2F%2Ffonts.googleapis.com%2Fcss%3Ffamily%3DArchitects%2BDaughter;sketch=1;curveFitting=1;jiggle=2;" parent="1" source="BQeTc1KD_16eWAKUf4Th-12" target="BQeTc1KD_16eWAKUf4Th-24" edge="1">
          <mxGeometry relative="1" as="geometry">
            <mxPoint x="215.25" y="770" as="targetPoint" />
            <mxPoint x="215.25" y="620" as="sourcePoint" />
          </mxGeometry>
        </mxCell>
        <mxCell id="BQeTc1KD_16eWAKUf4Th-24" value="Log in System" style="rounded=1;arcSize=40;fontColor=#393C56;fillColor=#F2CC8F;strokeColor=#E07A5F;fontSize=16;fontFamily=Architects Daughter;labelBackgroundColor=none;fontStyle=1;labelBorderColor=none;whiteSpace=wrap;html=1;fontSource=https%3A%2F%2Ffonts.googleapis.com%2Fcss%3Ffamily%3DArchitects%2BDaughter;sketch=1;curveFitting=1;jiggle=2;" parent="1" vertex="1">
          <mxGeometry x="160.75" y="560" width="120" height="40" as="geometry" />
        </mxCell>
        <mxCell id="SfQGXnOb-Ir7KjK6WU2_-20" value="" style="edgeStyle=orthogonalEdgeStyle;align=left;verticalAlign=bottom;endArrow=open;endSize=8;strokeColor=#E07A5F;rounded=1;fontFamily=Architects Daughter;fontSize=16;labelBackgroundColor=none;fontColor=default;fontStyle=1;labelBorderColor=none;html=1;fontSource=https%3A%2F%2Ffonts.googleapis.com%2Fcss%3Ffamily%3DArchitects%2BDaughter;sketch=1;curveFitting=1;jiggle=2;" parent="1" source="SfQGXnOb-Ir7KjK6WU2_-12" target="SfQGXnOb-Ir7KjK6WU2_-18" edge="1">
          <mxGeometry x="-1" relative="1" as="geometry">
            <mxPoint x="406.25" y="1115" as="targetPoint" />
            <mxPoint x="265.25" y="1120" as="sourcePoint" />
            <Array as="points" />
          </mxGeometry>
        </mxCell>
        <mxCell id="SfQGXnOb-Ir7KjK6WU2_-27" value="Advisor" style="edgeLabel;align=center;verticalAlign=middle;resizable=0;points=[];fontFamily=Architects Daughter;fontSize=16;labelBackgroundColor=none;fontColor=#393C56;rounded=1;fontStyle=1;labelBorderColor=none;html=1;fontSource=https%3A%2F%2Ffonts.googleapis.com%2Fcss%3Ffamily%3DArchitects%2BDaughter;sketch=1;curveFitting=1;jiggle=2;" parent="SfQGXnOb-Ir7KjK6WU2_-20" vertex="1" connectable="0">
          <mxGeometry x="-0.6889" y="1" relative="1" as="geometry">
            <mxPoint x="32" y="1" as="offset" />
          </mxGeometry>
        </mxCell>
        <mxCell id="3_fbX6zJ1j63LrsjDhZ5-8" value="" style="edgeStyle=orthogonalEdgeStyle;rounded=1;hachureGap=4;orthogonalLoop=1;jettySize=auto;exitX=1;exitY=0.5;exitDx=0;exitDy=0;entryX=0;entryY=0.5;entryDx=0;entryDy=0;fontFamily=Architects Daughter;fontSize=16;fontStyle=1;labelBackgroundColor=none;strokeColor=#E07A5F;fontColor=default;labelBorderColor=none;html=1;fontSource=https%3A%2F%2Ffonts.googleapis.com%2Fcss%3Ffamily%3DArchitects%2BDaughter;sketch=1;curveFitting=1;jiggle=2;" parent="1" source="SfQGXnOb-Ir7KjK6WU2_-18" target="3_fbX6zJ1j63LrsjDhZ5-5" edge="1">
          <mxGeometry relative="1" as="geometry" />
        </mxCell>
        <mxCell id="SfQGXnOb-Ir7KjK6WU2_-18" value="Display Advisor Menu" style="rounded=1;arcSize=40;fontColor=#393C56;fillColor=#F2CC8F;strokeColor=#E07A5F;fontFamily=Architects Daughter;fontSize=16;labelBackgroundColor=none;fontStyle=1;labelBorderColor=none;whiteSpace=wrap;html=1;fontSource=https%3A%2F%2Ffonts.googleapis.com%2Fcss%3Ffamily%3DArchitects%2BDaughter;sketch=1;curveFitting=1;jiggle=2;" parent="1" vertex="1">
          <mxGeometry x="421" y="920" width="120" height="40" as="geometry" />
        </mxCell>
        <mxCell id="SfQGXnOb-Ir7KjK6WU2_-22" value="" style="edgeStyle=orthogonalEdgeStyle;align=left;verticalAlign=top;endArrow=open;endSize=8;strokeColor=#E07A5F;rounded=1;fontSize=16;curved=1;fontFamily=Architects Daughter;labelBackgroundColor=none;fontColor=default;fontStyle=1;labelBorderColor=none;html=1;fontSource=https%3A%2F%2Ffonts.googleapis.com%2Fcss%3Ffamily%3DArchitects%2BDaughter;sketch=1;curveFitting=1;jiggle=2;" parent="1" source="BQeTc1KD_16eWAKUf4Th-36" target="SfQGXnOb-Ir7KjK6WU2_-9" edge="1">
          <mxGeometry x="-1" relative="1" as="geometry">
            <mxPoint x="215.25" y="980" as="targetPoint" />
            <mxPoint x="215.25" y="700" as="sourcePoint" />
          </mxGeometry>
        </mxCell>
        <mxCell id="SfQGXnOb-Ir7KjK6WU2_-24" value="Yes" style="edgeLabel;align=center;verticalAlign=middle;resizable=0;points=[];fontFamily=Architects Daughter;fontSize=16;labelBackgroundColor=none;fontColor=#393C56;rounded=1;fontStyle=1;labelBorderColor=none;html=1;fontSource=https%3A%2F%2Ffonts.googleapis.com%2Fcss%3Ffamily%3DArchitects%2BDaughter;sketch=1;curveFitting=1;jiggle=2;" parent="SfQGXnOb-Ir7KjK6WU2_-22" vertex="1" connectable="0">
          <mxGeometry x="-0.1802" relative="1" as="geometry">
            <mxPoint as="offset" />
          </mxGeometry>
        </mxCell>
        <mxCell id="SfQGXnOb-Ir7KjK6WU2_-9" value="Access Abstract Menu" style="rounded=1;arcSize=40;fontColor=#393C56;fillColor=#F2CC8F;strokeColor=#E07A5F;fontFamily=Architects Daughter;fontSize=16;labelBackgroundColor=none;fontStyle=1;labelBorderColor=none;whiteSpace=wrap;html=1;fontSource=https%3A%2F%2Ffonts.googleapis.com%2Fcss%3Ffamily%3DArchitects%2BDaughter;sketch=1;curveFitting=1;jiggle=2;" parent="1" vertex="1">
          <mxGeometry x="160.5" y="800" width="120" height="40" as="geometry" />
        </mxCell>
        <mxCell id="SfQGXnOb-Ir7KjK6WU2_-23" value="" style="edgeStyle=orthogonalEdgeStyle;align=left;verticalAlign=top;endArrow=open;endSize=8;strokeColor=#E07A5F;rounded=1;fontSize=16;curved=1;fontFamily=Architects Daughter;labelBackgroundColor=none;fontColor=default;fontStyle=1;labelBorderColor=none;html=1;fontSource=https%3A%2F%2Ffonts.googleapis.com%2Fcss%3Ffamily%3DArchitects%2BDaughter;sketch=1;curveFitting=1;jiggle=2;" parent="1" source="SfQGXnOb-Ir7KjK6WU2_-9" target="SfQGXnOb-Ir7KjK6WU2_-12" edge="1">
          <mxGeometry x="-1" relative="1" as="geometry">
            <mxPoint x="215.25" y="980" as="targetPoint" />
            <mxPoint x="215.25" y="780" as="sourcePoint" />
          </mxGeometry>
        </mxCell>
        <mxCell id="SfQGXnOb-Ir7KjK6WU2_-12" value="User Type" style="rhombus;fontColor=#393C56;fillColor=#F2CC8F;strokeColor=#E07A5F;fontFamily=Architects Daughter;fontSize=16;labelBackgroundColor=none;rounded=1;fontStyle=1;labelBorderColor=none;whiteSpace=wrap;html=1;fontSource=https%3A%2F%2Ffonts.googleapis.com%2Fcss%3Ffamily%3DArchitects%2BDaughter;sketch=1;curveFitting=1;jiggle=2;" parent="1" vertex="1">
          <mxGeometry x="160" y="880" width="120" height="120" as="geometry" />
        </mxCell>
        <mxCell id="cQG9Z8V1ExgYOR1QqFan-4" value="Display Student Menu" style="rounded=1;arcSize=40;fontColor=#393C56;fillColor=#F2CC8F;strokeColor=#E07A5F;fontFamily=Architects Daughter;fontSize=16;labelBackgroundColor=none;fontStyle=1;labelBorderColor=none;whiteSpace=wrap;html=1;fontSource=https%3A%2F%2Ffonts.googleapis.com%2Fcss%3Ffamily%3DArchitects%2BDaughter;sketch=1;curveFitting=1;jiggle=2;" parent="1" vertex="1">
          <mxGeometry x="160" y="1165" width="120" height="40" as="geometry" />
        </mxCell>
        <mxCell id="cQG9Z8V1ExgYOR1QqFan-5" value="" style="edgeStyle=orthogonalEdgeStyle;verticalAlign=bottom;endArrow=open;endSize=8;strokeColor=#E07A5F;rounded=1;fontFamily=Architects Daughter;fontSize=16;labelBackgroundColor=none;fontColor=default;fontStyle=1;labelBorderColor=none;html=1;fontSource=https%3A%2F%2Ffonts.googleapis.com%2Fcss%3Ffamily%3DArchitects%2BDaughter;sketch=1;curveFitting=1;jiggle=2;" parent="1" source="cQG9Z8V1ExgYOR1QqFan-4" target="3_fbX6zJ1j63LrsjDhZ5-41" edge="1">
          <mxGeometry relative="1" as="geometry">
            <mxPoint x="215" y="1300" as="targetPoint" />
          </mxGeometry>
        </mxCell>
        <mxCell id="mALfoPIZHTVUpBpU2zBv-12" value="" style="edgeStyle=orthogonalEdgeStyle;rounded=1;orthogonalLoop=1;jettySize=auto;entryX=0;entryY=0.5;entryDx=0;entryDy=0;fontFamily=Architects Daughter;fontSize=16;labelBackgroundColor=none;strokeColor=#E07A5F;fontColor=default;fontStyle=1;labelBorderColor=none;html=1;fontSource=https%3A%2F%2Ffonts.googleapis.com%2Fcss%3Ffamily%3DArchitects%2BDaughter;sketch=1;curveFitting=1;jiggle=2;" parent="1" source="cQG9Z8V1ExgYOR1QqFan-7" target="mALfoPIZHTVUpBpU2zBv-9" edge="1">
          <mxGeometry relative="1" as="geometry" />
        </mxCell>
        <mxCell id="cQG9Z8V1ExgYOR1QqFan-7" value="Show Request(s)" style="rounded=1;arcSize=40;fontColor=#393C56;fillColor=#F2CC8F;strokeColor=#E07A5F;fontFamily=Architects Daughter;fontSize=16;labelBackgroundColor=none;fontStyle=1;labelBorderColor=none;whiteSpace=wrap;html=1;fontSource=https%3A%2F%2Ffonts.googleapis.com%2Fcss%3Ffamily%3DArchitects%2BDaughter;sketch=1;curveFitting=1;jiggle=2;" parent="1" vertex="1">
          <mxGeometry x="581" y="1020" width="120" height="40" as="geometry" />
        </mxCell>
        <mxCell id="mALfoPIZHTVUpBpU2zBv-7" value="" style="edgeStyle=orthogonalEdgeStyle;rounded=1;orthogonalLoop=1;jettySize=auto;entryX=1;entryY=0.5;entryDx=0;entryDy=0;fontFamily=Architects Daughter;fontSize=16;labelBackgroundColor=none;strokeColor=#E07A5F;fontColor=default;fontStyle=1;labelBorderColor=none;html=1;fontSource=https%3A%2F%2Ffonts.googleapis.com%2Fcss%3Ffamily%3DArchitects%2BDaughter;sketch=1;curveFitting=1;jiggle=2;" parent="1" source="cQG9Z8V1ExgYOR1QqFan-9" target="BQeTc1KD_16eWAKUf4Th-24" edge="1">
          <mxGeometry relative="1" as="geometry">
            <Array as="points">
              <mxPoint x="640" y="580" />
            </Array>
          </mxGeometry>
        </mxCell>
        <mxCell id="cQG9Z8V1ExgYOR1QqFan-9" value="Log Out" style="rounded=1;arcSize=40;fontColor=#393C56;fillColor=#F2CC8F;strokeColor=#E07A5F;align=center;verticalAlign=middle;fontFamily=Architects Daughter;fontSize=16;labelBackgroundColor=none;fontStyle=1;labelBorderColor=none;whiteSpace=wrap;html=1;fontSource=https%3A%2F%2Ffonts.googleapis.com%2Fcss%3Ffamily%3DArchitects%2BDaughter;sketch=1;curveFitting=1;jiggle=2;" parent="1" vertex="1">
          <mxGeometry x="581" y="720" width="120" height="40" as="geometry" />
        </mxCell>
        <mxCell id="3_fbX6zJ1j63LrsjDhZ5-12" value="" style="edgeStyle=orthogonalEdgeStyle;rounded=1;hachureGap=4;orthogonalLoop=1;jettySize=auto;exitX=1;exitY=0.5;exitDx=0;exitDy=0;entryX=0;entryY=0.5;entryDx=0;entryDy=0;fontFamily=Architects Daughter;fontSize=16;fontStyle=1;labelBackgroundColor=none;strokeColor=#E07A5F;fontColor=default;labelBorderColor=none;html=1;fontSource=https%3A%2F%2Ffonts.googleapis.com%2Fcss%3Ffamily%3DArchitects%2BDaughter;sketch=1;curveFitting=1;jiggle=2;" parent="1" source="mALfoPIZHTVUpBpU2zBv-9" target="3_fbX6zJ1j63LrsjDhZ5-9" edge="1">
          <mxGeometry relative="1" as="geometry" />
        </mxCell>
        <mxCell id="mALfoPIZHTVUpBpU2zBv-9" value="Respond Request" style="rounded=1;arcSize=40;fontColor=#393C56;fillColor=#F2CC8F;strokeColor=#E07A5F;fontFamily=Architects Daughter;fontSize=16;labelBackgroundColor=none;fontStyle=1;labelBorderColor=none;whiteSpace=wrap;html=1;fontSource=https%3A%2F%2Ffonts.googleapis.com%2Fcss%3Ffamily%3DArchitects%2BDaughter;sketch=1;curveFitting=1;jiggle=2;" parent="1" vertex="1">
          <mxGeometry x="800" y="1020" width="120" height="40" as="geometry" />
        </mxCell>
        <mxCell id="3_fbX6zJ1j63LrsjDhZ5-5" value="Examine Requests?" style="rhombus;fontColor=#393C56;fillColor=#F2CC8F;strokeColor=#E07A5F;hachureGap=4;fontFamily=Architects Daughter;fontSize=16;fontStyle=1;labelBackgroundColor=none;rounded=1;labelBorderColor=none;whiteSpace=wrap;html=1;fontSource=https%3A%2F%2Ffonts.googleapis.com%2Fcss%3Ffamily%3DArchitects%2BDaughter;sketch=1;curveFitting=1;jiggle=2;" parent="1" vertex="1">
          <mxGeometry x="582" y="900" width="119" height="80" as="geometry" />
        </mxCell>
        <mxCell id="3_fbX6zJ1j63LrsjDhZ5-6" value="No" style="edgeStyle=orthogonalEdgeStyle;align=left;verticalAlign=bottom;endArrow=open;endSize=8;strokeColor=#E07A5F;rounded=1;hachureGap=4;fontFamily=Architects Daughter;fontSize=16;entryX=0.5;entryY=1;entryDx=0;entryDy=0;fontStyle=1;labelBackgroundColor=none;fontColor=default;labelBorderColor=none;html=1;fontSource=https%3A%2F%2Ffonts.googleapis.com%2Fcss%3Ffamily%3DArchitects%2BDaughter;sketch=1;curveFitting=1;jiggle=2;" parent="1" source="3_fbX6zJ1j63LrsjDhZ5-5" target="cQG9Z8V1ExgYOR1QqFan-9" edge="1">
          <mxGeometry x="-1" relative="1" as="geometry">
            <mxPoint x="741" y="940" as="targetPoint" />
          </mxGeometry>
        </mxCell>
        <mxCell id="3_fbX6zJ1j63LrsjDhZ5-7" value="Yes" style="edgeStyle=orthogonalEdgeStyle;align=left;verticalAlign=top;endArrow=open;endSize=8;strokeColor=#E07A5F;rounded=1;hachureGap=4;fontFamily=Architects Daughter;fontSize=16;entryX=0.5;entryY=0;entryDx=0;entryDy=0;fontStyle=1;labelBackgroundColor=none;fontColor=default;labelBorderColor=none;html=1;fontSource=https%3A%2F%2Ffonts.googleapis.com%2Fcss%3Ffamily%3DArchitects%2BDaughter;sketch=1;curveFitting=1;jiggle=2;" parent="1" source="3_fbX6zJ1j63LrsjDhZ5-5" target="cQG9Z8V1ExgYOR1QqFan-7" edge="1">
          <mxGeometry x="-1" relative="1" as="geometry">
            <mxPoint x="601" y="1020" as="targetPoint" />
          </mxGeometry>
        </mxCell>
        <mxCell id="3_fbX6zJ1j63LrsjDhZ5-54" value="" style="edgeStyle=orthogonalEdgeStyle;rounded=1;hachureGap=4;orthogonalLoop=1;jettySize=auto;strokeColor=#E07A5F;fontFamily=Architects Daughter;fontSize=16;fontColor=default;fillColor=#F2CC8F;entryX=1;entryY=0.5;entryDx=0;entryDy=0;fontStyle=1;labelBackgroundColor=none;labelBorderColor=none;html=1;fontSource=https%3A%2F%2Ffonts.googleapis.com%2Fcss%3Ffamily%3DArchitects%2BDaughter;sketch=1;curveFitting=1;jiggle=2;" parent="1" source="3_fbX6zJ1j63LrsjDhZ5-9" target="3_fbX6zJ1j63LrsjDhZ5-14" edge="1">
          <mxGeometry relative="1" as="geometry">
            <mxPoint x="1250" y="1370" as="targetPoint" />
            <Array as="points">
              <mxPoint x="1200" y="1040" />
              <mxPoint x="1200" y="1445" />
            </Array>
          </mxGeometry>
        </mxCell>
        <mxCell id="3_fbX6zJ1j63LrsjDhZ5-84" value="No" style="edgeLabel;align=center;verticalAlign=middle;resizable=0;points=[];fontSize=16;fontFamily=Architects Daughter;fontColor=#393C56;fontStyle=1;rounded=1;labelBackgroundColor=none;labelBorderColor=none;html=1;fontSource=https%3A%2F%2Ffonts.googleapis.com%2Fcss%3Ffamily%3DArchitects%2BDaughter;sketch=1;curveFitting=1;jiggle=2;" parent="3_fbX6zJ1j63LrsjDhZ5-54" vertex="1" connectable="0">
          <mxGeometry x="-0.8804" relative="1" as="geometry">
            <mxPoint as="offset" />
          </mxGeometry>
        </mxCell>
        <mxCell id="3_fbX6zJ1j63LrsjDhZ5-9" value="Appropriate Request?" style="rhombus;fontColor=#393C56;fillColor=#F2CC8F;strokeColor=#E07A5F;hachureGap=4;fontFamily=Architects Daughter;fontSize=16;fontStyle=1;labelBackgroundColor=none;rounded=1;labelBorderColor=none;whiteSpace=wrap;html=1;fontSource=https%3A%2F%2Ffonts.googleapis.com%2Fcss%3Ffamily%3DArchitects%2BDaughter;sketch=1;curveFitting=1;jiggle=2;" parent="1" vertex="1">
          <mxGeometry x="1040" y="1000" width="120" height="80" as="geometry" />
        </mxCell>
        <mxCell id="3_fbX6zJ1j63LrsjDhZ5-11" value="Yes" style="edgeStyle=orthogonalEdgeStyle;align=left;verticalAlign=top;endArrow=open;endSize=8;strokeColor=#E07A5F;rounded=1;hachureGap=4;fontFamily=Architects Daughter;fontSize=16;fontStyle=1;labelBackgroundColor=none;fontColor=default;entryX=0.5;entryY=0;entryDx=0;entryDy=0;exitX=0.5;exitY=1;exitDx=0;exitDy=0;labelBorderColor=none;html=1;fontSource=https%3A%2F%2Ffonts.googleapis.com%2Fcss%3Ffamily%3DArchitects%2BDaughter;sketch=1;curveFitting=1;jiggle=2;" parent="1" source="3_fbX6zJ1j63LrsjDhZ5-9" target="3_fbX6zJ1j63LrsjDhZ5-16" edge="1">
          <mxGeometry x="-0.7124" relative="1" as="geometry">
            <mxPoint x="1001" y="1140" as="targetPoint" />
            <Array as="points">
              <mxPoint x="1100" y="1180" />
            </Array>
            <mxPoint as="offset" />
          </mxGeometry>
        </mxCell>
        <mxCell id="3_fbX6zJ1j63LrsjDhZ5-14" value="Reject" style="rounded=1;arcSize=40;fontColor=#393C56;fillColor=#F2CC8F;strokeColor=#E07A5F;hachureGap=4;fontFamily=Architects Daughter;fontSize=16;labelBackgroundColor=none;fontStyle=1;labelBorderColor=none;whiteSpace=wrap;html=1;fontSource=https%3A%2F%2Ffonts.googleapis.com%2Fcss%3Ffamily%3DArchitects%2BDaughter;sketch=1;curveFitting=1;jiggle=2;" parent="1" vertex="1">
          <mxGeometry x="1040" y="1425" width="120" height="40" as="geometry" />
        </mxCell>
        <mxCell id="3_fbX6zJ1j63LrsjDhZ5-16" value="Approve" style="rounded=1;arcSize=40;fontColor=#393C56;fillColor=#F2CC8F;strokeColor=#E07A5F;hachureGap=4;fontFamily=Architects Daughter;fontSize=16;labelBackgroundColor=none;fontStyle=1;labelBorderColor=none;whiteSpace=wrap;html=1;fontSource=https%3A%2F%2Ffonts.googleapis.com%2Fcss%3Ffamily%3DArchitects%2BDaughter;sketch=1;curveFitting=1;jiggle=2;" parent="1" vertex="1">
          <mxGeometry x="1040" y="1180" width="120" height="40" as="geometry" />
        </mxCell>
        <mxCell id="3_fbX6zJ1j63LrsjDhZ5-20" value="Set Request as Accepted" style="rounded=1;arcSize=40;fontColor=#393C56;fillColor=#F2CC8F;strokeColor=#E07A5F;hachureGap=4;fontFamily=Architects Daughter;fontSize=16;fontStyle=1;labelBackgroundColor=none;labelBorderColor=none;whiteSpace=wrap;html=1;fontSource=https%3A%2F%2Ffonts.googleapis.com%2Fcss%3Ffamily%3DArchitects%2BDaughter;sketch=1;curveFitting=1;jiggle=2;" parent="1" vertex="1">
          <mxGeometry x="760" y="1220" width="160" height="40" as="geometry" />
        </mxCell>
        <mxCell id="3_fbX6zJ1j63LrsjDhZ5-24" value="Confirm Draft Student Schedule" style="rounded=1;arcSize=40;fontColor=#393C56;fillColor=#F2CC8F;strokeColor=#E07A5F;hachureGap=4;fontFamily=Architects Daughter;fontSize=16;fontStyle=1;labelBackgroundColor=none;labelBorderColor=none;whiteSpace=wrap;html=1;fontSource=https%3A%2F%2Ffonts.googleapis.com%2Fcss%3Ffamily%3DArchitects%2BDaughter;sketch=1;curveFitting=1;jiggle=2;" parent="1" vertex="1">
          <mxGeometry x="760" y="1140" width="160" height="40" as="geometry" />
        </mxCell>
        <mxCell id="178SUdL-pKy2sh_oCuYC-69" style="edgeStyle=orthogonalEdgeStyle;rounded=0;hachureGap=4;orthogonalLoop=1;jettySize=auto;html=1;exitX=0;exitY=0.5;exitDx=0;exitDy=0;entryX=0.5;entryY=1;entryDx=0;entryDy=0;strokeColor=#E07A5F;fontFamily=Architects Daughter;fontSource=https%3A%2F%2Ffonts.googleapis.com%2Fcss%3Ffamily%3DArchitects%2BDaughter;fontSize=16;fontColor=default;fillColor=#F2CC8F;labelBackgroundColor=none;fontStyle=1;sketch=1;curveFitting=1;jiggle=2;" parent="1" source="3_fbX6zJ1j63LrsjDhZ5-27" target="178SUdL-pKy2sh_oCuYC-65" edge="1">
          <mxGeometry relative="1" as="geometry" />
        </mxCell>
        <mxCell id="3_fbX6zJ1j63LrsjDhZ5-27" value="Student Registered" style="rounded=1;arcSize=40;fontColor=#393C56;fillColor=#F2CC8F;strokeColor=#E07A5F;hachureGap=4;fontFamily=Architects Daughter;fontSize=16;fontStyle=1;labelBackgroundColor=none;labelBorderColor=none;whiteSpace=wrap;html=1;fontSource=https%3A%2F%2Ffonts.googleapis.com%2Fcss%3Ffamily%3DArchitects%2BDaughter;sketch=1;curveFitting=1;jiggle=2;" parent="1" vertex="1">
          <mxGeometry x="520" y="1179.75" width="120" height="40" as="geometry" />
        </mxCell>
        <mxCell id="3_fbX6zJ1j63LrsjDhZ5-33" value="" style="edgeStyle=orthogonalEdgeStyle;rounded=1;hachureGap=4;orthogonalLoop=1;jettySize=auto;entryX=0.5;entryY=1;entryDx=0;entryDy=0;strokeColor=#E07A5F;fontFamily=Architects Daughter;fontSize=16;fontColor=default;fillColor=#F2CC8F;fontStyle=1;labelBackgroundColor=none;labelBorderColor=none;html=1;fontSource=https%3A%2F%2Ffonts.googleapis.com%2Fcss%3Ffamily%3DArchitects%2BDaughter;sketch=1;curveFitting=1;jiggle=2;" parent="1" source="3_fbX6zJ1j63LrsjDhZ5-30" target="SfQGXnOb-Ir7KjK6WU2_-18" edge="1">
          <mxGeometry relative="1" as="geometry" />
        </mxCell>
        <mxCell id="3_fbX6zJ1j63LrsjDhZ5-30" value="System Updated" style="rounded=1;arcSize=40;fontColor=#393C56;fillColor=#F2CC8F;strokeColor=#E07A5F;hachureGap=4;fontFamily=Architects Daughter;fontSize=16;fontStyle=1;labelBackgroundColor=none;labelBorderColor=none;whiteSpace=wrap;html=1;fontSource=https%3A%2F%2Ffonts.googleapis.com%2Fcss%3Ffamily%3DArchitects%2BDaughter;sketch=1;curveFitting=1;jiggle=2;" parent="1" vertex="1">
          <mxGeometry x="400" y="1020" width="160" height="40" as="geometry" />
        </mxCell>
        <mxCell id="3_fbX6zJ1j63LrsjDhZ5-35" value="Discard Request" style="rounded=1;arcSize=40;fontColor=#393C56;fillColor=#F2CC8F;strokeColor=#E07A5F;hachureGap=4;fontFamily=Architects Daughter;fontSize=16;fontStyle=1;labelBackgroundColor=none;labelBorderColor=none;whiteSpace=wrap;html=1;fontSource=https%3A%2F%2Ffonts.googleapis.com%2Fcss%3Ffamily%3DArchitects%2BDaughter;sketch=1;curveFitting=1;jiggle=2;" parent="1" vertex="1">
          <mxGeometry x="757.18" y="1465.56" width="160" height="40" as="geometry" />
        </mxCell>
        <mxCell id="3_fbX6zJ1j63LrsjDhZ5-37" value="Delete Student Draft" style="rounded=1;arcSize=40;fontColor=#393C56;fillColor=#F2CC8F;strokeColor=#E07A5F;hachureGap=4;fontFamily=Architects Daughter;fontSize=16;fontStyle=1;labelBackgroundColor=none;labelBorderColor=none;whiteSpace=wrap;html=1;fontSource=https%3A%2F%2Ffonts.googleapis.com%2Fcss%3Ffamily%3DArchitects%2BDaughter;sketch=1;curveFitting=1;jiggle=2;" parent="1" vertex="1">
          <mxGeometry x="760" y="1385.56" width="160" height="40" as="geometry" />
        </mxCell>
        <mxCell id="3_fbX6zJ1j63LrsjDhZ5-137" style="edgeStyle=orthogonalEdgeStyle;rounded=0;hachureGap=4;orthogonalLoop=1;jettySize=auto;html=1;exitX=0.5;exitY=1;exitDx=0;exitDy=0;entryX=0.5;entryY=0;entryDx=0;entryDy=0;strokeColor=#E07A5F;fontFamily=Architects Daughter;fontSize=16;fontColor=default;fillColor=#F2CC8F;labelBackgroundColor=none;fontStyle=1;fontSource=https%3A%2F%2Ffonts.googleapis.com%2Fcss%3Ffamily%3DArchitects%2BDaughter;sketch=1;curveFitting=1;jiggle=2;" parent="1" source="3_fbX6zJ1j63LrsjDhZ5-41" target="3_fbX6zJ1j63LrsjDhZ5-135" edge="1">
          <mxGeometry relative="1" as="geometry" />
        </mxCell>
        <mxCell id="3_fbX6zJ1j63LrsjDhZ5-41" value="Show Notification(s)" style="rounded=1;arcSize=40;fontColor=#393C56;fillColor=#F2CC8F;strokeColor=#E07A5F;hachureGap=4;fontFamily=Architects Daughter;fontSize=16;labelBackgroundColor=none;fontStyle=1;labelBorderColor=none;whiteSpace=wrap;html=1;fontSource=https%3A%2F%2Ffonts.googleapis.com%2Fcss%3Ffamily%3DArchitects%2BDaughter;sketch=1;curveFitting=1;jiggle=2;" parent="1" vertex="1">
          <mxGeometry x="160.75" y="1320.0000000000002" width="120" height="40" as="geometry" />
        </mxCell>
        <mxCell id="3_fbX6zJ1j63LrsjDhZ5-55" value="" style="edgeStyle=orthogonalEdgeStyle;rounded=1;hachureGap=4;orthogonalLoop=1;jettySize=auto;exitX=0.25;exitY=0.5;exitDx=0;exitDy=0;exitPerimeter=0;entryX=1;entryY=0.5;entryDx=0;entryDy=0;strokeColor=#E07A5F;fontFamily=Architects Daughter;fontSize=16;fontColor=default;fillColor=#F2CC8F;fontStyle=1;labelBackgroundColor=none;labelBorderColor=none;html=1;fontSource=https%3A%2F%2Ffonts.googleapis.com%2Fcss%3Ffamily%3DArchitects%2BDaughter;sketch=1;curveFitting=1;jiggle=2;" parent="1" source="3_fbX6zJ1j63LrsjDhZ5-49" target="3_fbX6zJ1j63LrsjDhZ5-24" edge="1">
          <mxGeometry relative="1" as="geometry" />
        </mxCell>
        <mxCell id="3_fbX6zJ1j63LrsjDhZ5-56" value="" style="edgeStyle=orthogonalEdgeStyle;rounded=1;hachureGap=4;orthogonalLoop=1;jettySize=auto;exitX=0.75;exitY=0.5;exitDx=0;exitDy=0;exitPerimeter=0;entryX=1;entryY=0.5;entryDx=0;entryDy=0;strokeColor=#E07A5F;fontFamily=Architects Daughter;fontSize=16;fontColor=default;fillColor=#F2CC8F;fontStyle=1;labelBackgroundColor=none;labelBorderColor=none;html=1;fontSource=https%3A%2F%2Ffonts.googleapis.com%2Fcss%3Ffamily%3DArchitects%2BDaughter;sketch=1;curveFitting=1;jiggle=2;" parent="1" source="3_fbX6zJ1j63LrsjDhZ5-49" target="3_fbX6zJ1j63LrsjDhZ5-20" edge="1">
          <mxGeometry relative="1" as="geometry" />
        </mxCell>
        <mxCell id="3_fbX6zJ1j63LrsjDhZ5-49" value="" style="shape=line;strokeWidth=6;strokeColor=#E07A5F;hachureGap=4;fontFamily=Architects Daughter;fontSize=16;fontColor=#393C56;fillColor=#F2CC8F;rotation=90;fontStyle=1;rounded=1;labelBackgroundColor=none;labelBorderColor=none;whiteSpace=wrap;html=1;fontSource=https%3A%2F%2Ffonts.googleapis.com%2Fcss%3Ffamily%3DArchitects%2BDaughter;sketch=1;curveFitting=1;jiggle=2;" parent="1" vertex="1">
          <mxGeometry x="880" y="1195" width="160" height="10" as="geometry" />
        </mxCell>
        <mxCell id="3_fbX6zJ1j63LrsjDhZ5-53" value="" style="edgeStyle=orthogonalEdgeStyle;rounded=1;hachureGap=4;orthogonalLoop=1;jettySize=auto;exitX=0;exitY=0.5;exitDx=0;exitDy=0;entryX=0.503;entryY=0.6;entryDx=0;entryDy=0;entryPerimeter=0;strokeColor=#E07A5F;fontFamily=Architects Daughter;fontSize=16;fontColor=default;fillColor=#F2CC8F;fontStyle=1;labelBackgroundColor=none;labelBorderColor=none;html=1;fontSource=https%3A%2F%2Ffonts.googleapis.com%2Fcss%3Ffamily%3DArchitects%2BDaughter;sketch=1;curveFitting=1;jiggle=2;" parent="1" source="3_fbX6zJ1j63LrsjDhZ5-16" target="3_fbX6zJ1j63LrsjDhZ5-49" edge="1">
          <mxGeometry relative="1" as="geometry" />
        </mxCell>
        <mxCell id="178SUdL-pKy2sh_oCuYC-74" style="edgeStyle=orthogonalEdgeStyle;rounded=0;hachureGap=4;orthogonalLoop=1;jettySize=auto;html=1;exitX=0.25;exitY=0.5;exitDx=0;exitDy=0;exitPerimeter=0;entryX=1;entryY=0.5;entryDx=0;entryDy=0;strokeColor=#E07A5F;fontFamily=Architects Daughter;fontSource=https%3A%2F%2Ffonts.googleapis.com%2Fcss%3Ffamily%3DArchitects%2BDaughter;fontSize=16;fontColor=default;fillColor=#F2CC8F;labelBackgroundColor=none;fontStyle=1;sketch=1;curveFitting=1;jiggle=2;" parent="1" source="3_fbX6zJ1j63LrsjDhZ5-60" target="3_fbX6zJ1j63LrsjDhZ5-37" edge="1">
          <mxGeometry relative="1" as="geometry">
            <Array as="points">
              <mxPoint x="960" y="1406" />
            </Array>
          </mxGeometry>
        </mxCell>
        <mxCell id="178SUdL-pKy2sh_oCuYC-75" style="edgeStyle=orthogonalEdgeStyle;rounded=0;hachureGap=4;orthogonalLoop=1;jettySize=auto;html=1;entryX=1;entryY=0.5;entryDx=0;entryDy=0;strokeColor=#E07A5F;fontFamily=Architects Daughter;fontSource=https%3A%2F%2Ffonts.googleapis.com%2Fcss%3Ffamily%3DArchitects%2BDaughter;fontSize=16;fontColor=default;fillColor=#F2CC8F;exitX=0.824;exitY=0.612;exitDx=0;exitDy=0;exitPerimeter=0;labelBackgroundColor=none;fontStyle=1;sketch=1;curveFitting=1;jiggle=2;" parent="1" source="3_fbX6zJ1j63LrsjDhZ5-60" target="3_fbX6zJ1j63LrsjDhZ5-35" edge="1">
          <mxGeometry relative="1" as="geometry">
            <mxPoint x="970" y="1486" as="sourcePoint" />
          </mxGeometry>
        </mxCell>
        <mxCell id="3_fbX6zJ1j63LrsjDhZ5-60" value="" style="shape=line;strokeWidth=6;strokeColor=#E07A5F;hachureGap=4;fontFamily=Architects Daughter;fontSize=16;fontColor=#393C56;fillColor=#F2CC8F;rotation=90;fontStyle=1;rounded=1;labelBackgroundColor=none;labelBorderColor=none;whiteSpace=wrap;html=1;fontSource=https%3A%2F%2Ffonts.googleapis.com%2Fcss%3Ffamily%3DArchitects%2BDaughter;sketch=1;curveFitting=1;jiggle=2;" parent="1" vertex="1">
          <mxGeometry x="882.6" y="1432.59" width="154.81" height="10" as="geometry" />
        </mxCell>
        <mxCell id="3_fbX6zJ1j63LrsjDhZ5-67" value="" style="edgeStyle=orthogonalEdgeStyle;rounded=1;hachureGap=4;orthogonalLoop=1;jettySize=auto;entryX=1;entryY=0.5;entryDx=0;entryDy=0;strokeColor=#E07A5F;fontFamily=Architects Daughter;fontSize=16;fontColor=default;fillColor=#F2CC8F;fontStyle=1;labelBackgroundColor=none;labelBorderColor=none;html=1;fontSource=https%3A%2F%2Ffonts.googleapis.com%2Fcss%3Ffamily%3DArchitects%2BDaughter;sketch=1;curveFitting=1;jiggle=2;" parent="1" source="3_fbX6zJ1j63LrsjDhZ5-62" target="3_fbX6zJ1j63LrsjDhZ5-27" edge="1">
          <mxGeometry relative="1" as="geometry" />
        </mxCell>
        <mxCell id="3_fbX6zJ1j63LrsjDhZ5-62" value="" style="shape=line;strokeWidth=6;strokeColor=#E07A5F;hachureGap=4;fontFamily=Architects Daughter;fontSize=16;fontColor=#393C56;fillColor=#F2CC8F;rotation=90;fontStyle=1;rounded=1;labelBackgroundColor=none;labelBorderColor=none;whiteSpace=wrap;html=1;fontSource=https%3A%2F%2Ffonts.googleapis.com%2Fcss%3Ffamily%3DArchitects%2BDaughter;sketch=1;curveFitting=1;jiggle=2;" parent="1" vertex="1">
          <mxGeometry x="640" y="1195" width="158.5" height="10" as="geometry" />
        </mxCell>
        <mxCell id="3_fbX6zJ1j63LrsjDhZ5-65" value="" style="edgeStyle=orthogonalEdgeStyle;rounded=1;hachureGap=4;orthogonalLoop=1;jettySize=auto;exitX=0;exitY=0.5;exitDx=0;exitDy=0;entryX=0.25;entryY=0.5;entryDx=0;entryDy=0;entryPerimeter=0;strokeColor=#E07A5F;fontFamily=Architects Daughter;fontSize=16;fontColor=default;fillColor=#F2CC8F;fontStyle=1;labelBackgroundColor=none;labelBorderColor=none;html=1;fontSource=https%3A%2F%2Ffonts.googleapis.com%2Fcss%3Ffamily%3DArchitects%2BDaughter;sketch=1;curveFitting=1;jiggle=2;" parent="1" source="3_fbX6zJ1j63LrsjDhZ5-24" target="3_fbX6zJ1j63LrsjDhZ5-62" edge="1">
          <mxGeometry relative="1" as="geometry" />
        </mxCell>
        <mxCell id="3_fbX6zJ1j63LrsjDhZ5-66" value="" style="edgeStyle=orthogonalEdgeStyle;rounded=1;hachureGap=4;orthogonalLoop=1;jettySize=auto;exitX=0;exitY=0.5;exitDx=0;exitDy=0;entryX=0.75;entryY=0.5;entryDx=0;entryDy=0;entryPerimeter=0;strokeColor=#E07A5F;fontFamily=Architects Daughter;fontSize=16;fontColor=default;fillColor=#F2CC8F;fontStyle=1;labelBackgroundColor=none;labelBorderColor=none;html=1;fontSource=https%3A%2F%2Ffonts.googleapis.com%2Fcss%3Ffamily%3DArchitects%2BDaughter;sketch=1;curveFitting=1;jiggle=2;" parent="1" source="3_fbX6zJ1j63LrsjDhZ5-20" target="3_fbX6zJ1j63LrsjDhZ5-62" edge="1">
          <mxGeometry relative="1" as="geometry" />
        </mxCell>
        <mxCell id="3_fbX6zJ1j63LrsjDhZ5-80" value="" style="edgeStyle=orthogonalEdgeStyle;rounded=1;hachureGap=4;orthogonalLoop=1;jettySize=auto;entryX=1;entryY=0.5;entryDx=0;entryDy=0;strokeColor=#E07A5F;fontFamily=Architects Daughter;fontSize=16;fontColor=default;fillColor=#F2CC8F;fontStyle=1;labelBackgroundColor=none;labelBorderColor=none;html=1;fontSource=https%3A%2F%2Ffonts.googleapis.com%2Fcss%3Ffamily%3DArchitects%2BDaughter;sketch=1;curveFitting=1;jiggle=2;" parent="1" source="3_fbX6zJ1j63LrsjDhZ5-72" target="3_fbX6zJ1j63LrsjDhZ5-79" edge="1">
          <mxGeometry relative="1" as="geometry" />
        </mxCell>
        <mxCell id="3_fbX6zJ1j63LrsjDhZ5-72" value="" style="shape=line;strokeWidth=6;strokeColor=#E07A5F;hachureGap=4;fontFamily=Architects Daughter;fontSize=16;fontColor=#393C56;fillColor=#F2CC8F;rotation=-90;fontStyle=1;rounded=1;labelBackgroundColor=none;labelBorderColor=none;whiteSpace=wrap;html=1;fontSource=https%3A%2F%2Ffonts.googleapis.com%2Fcss%3Ffamily%3DArchitects%2BDaughter;sketch=1;curveFitting=1;jiggle=2;" parent="1" vertex="1">
          <mxGeometry x="639.25" y="1440" width="159.25" height="10" as="geometry" />
        </mxCell>
        <mxCell id="3_fbX6zJ1j63LrsjDhZ5-81" value="" style="edgeStyle=orthogonalEdgeStyle;rounded=1;hachureGap=4;orthogonalLoop=1;jettySize=auto;exitX=0.5;exitY=0;exitDx=0;exitDy=0;entryX=0.5;entryY=1;entryDx=0;entryDy=0;strokeColor=#E07A5F;fontFamily=Architects Daughter;fontSize=16;fontColor=default;fillColor=#F2CC8F;fontStyle=1;labelBackgroundColor=none;labelBorderColor=none;html=1;fontSource=https%3A%2F%2Ffonts.googleapis.com%2Fcss%3Ffamily%3DArchitects%2BDaughter;sketch=1;curveFitting=1;jiggle=2;" parent="1" source="178SUdL-pKy2sh_oCuYC-65" target="3_fbX6zJ1j63LrsjDhZ5-30" edge="1">
          <mxGeometry relative="1" as="geometry" />
        </mxCell>
        <mxCell id="178SUdL-pKy2sh_oCuYC-68" style="edgeStyle=orthogonalEdgeStyle;rounded=0;hachureGap=4;orthogonalLoop=1;jettySize=auto;html=1;exitX=0.5;exitY=0;exitDx=0;exitDy=0;entryX=0.5;entryY=1;entryDx=0;entryDy=0;strokeColor=#E07A5F;fontFamily=Architects Daughter;fontSource=https%3A%2F%2Ffonts.googleapis.com%2Fcss%3Ffamily%3DArchitects%2BDaughter;fontSize=16;fontColor=default;fillColor=#F2CC8F;labelBackgroundColor=none;fontStyle=1;sketch=1;curveFitting=1;jiggle=2;" parent="1" source="3_fbX6zJ1j63LrsjDhZ5-79" target="178SUdL-pKy2sh_oCuYC-65" edge="1">
          <mxGeometry relative="1" as="geometry" />
        </mxCell>
        <mxCell id="3_fbX6zJ1j63LrsjDhZ5-79" value="Student Could not Register" style="rounded=1;arcSize=40;fontColor=#393C56;fillColor=#F2CC8F;strokeColor=#E07A5F;hachureGap=4;fontFamily=Architects Daughter;fontSize=16;fontStyle=1;labelBackgroundColor=none;labelBorderColor=none;whiteSpace=wrap;html=1;fontSource=https%3A%2F%2Ffonts.googleapis.com%2Fcss%3Ffamily%3DArchitects%2BDaughter;sketch=1;curveFitting=1;jiggle=2;" parent="1" vertex="1">
          <mxGeometry x="421" y="1425.56" width="120" height="40" as="geometry" />
        </mxCell>
        <mxCell id="3_fbX6zJ1j63LrsjDhZ5-83" value="" style="edgeStyle=orthogonalEdgeStyle;rounded=1;hachureGap=4;orthogonalLoop=1;jettySize=auto;entryX=0.503;entryY=0.4;entryDx=0;entryDy=0;entryPerimeter=0;strokeColor=#E07A5F;fontFamily=Architects Daughter;fontSize=16;fontColor=default;fillColor=#F2CC8F;fontStyle=1;labelBackgroundColor=none;labelBorderColor=none;html=1;fontSource=https%3A%2F%2Ffonts.googleapis.com%2Fcss%3Ffamily%3DArchitects%2BDaughter;sketch=1;curveFitting=1;jiggle=2;" parent="1" source="3_fbX6zJ1j63LrsjDhZ5-14" target="3_fbX6zJ1j63LrsjDhZ5-60" edge="1">
          <mxGeometry relative="1" as="geometry" />
        </mxCell>
        <mxCell id="3_fbX6zJ1j63LrsjDhZ5-94" value="" style="edgeStyle=orthogonalEdgeStyle;rounded=0;hachureGap=4;orthogonalLoop=1;jettySize=auto;entryX=0;entryY=0.5;entryDx=0;entryDy=0;strokeColor=#E07A5F;fontFamily=Architects Daughter;fontSize=16;fontColor=default;fillColor=#F2CC8F;labelBackgroundColor=none;fontStyle=1;labelBorderColor=none;html=1;fontSource=https%3A%2F%2Ffonts.googleapis.com%2Fcss%3Ffamily%3DArchitects%2BDaughter;sketch=1;curveFitting=1;jiggle=2;" parent="1" source="3_fbX6zJ1j63LrsjDhZ5-87" target="3_fbX6zJ1j63LrsjDhZ5-91" edge="1">
          <mxGeometry relative="1" as="geometry" />
        </mxCell>
        <mxCell id="3_fbX6zJ1j63LrsjDhZ5-95" value="" style="edgeStyle=orthogonalEdgeStyle;rounded=0;hachureGap=4;orthogonalLoop=1;jettySize=auto;entryX=0.5;entryY=0;entryDx=0;entryDy=0;strokeColor=#E07A5F;fontFamily=Architects Daughter;fontSize=16;fontColor=default;fillColor=#F2CC8F;labelBackgroundColor=none;fontStyle=1;labelBorderColor=none;html=1;fontSource=https%3A%2F%2Ffonts.googleapis.com%2Fcss%3Ffamily%3DArchitects%2BDaughter;sketch=1;curveFitting=1;jiggle=2;" parent="1" source="3_fbX6zJ1j63LrsjDhZ5-87" target="3_fbX6zJ1j63LrsjDhZ5-93" edge="1">
          <mxGeometry relative="1" as="geometry" />
        </mxCell>
        <mxCell id="3_fbX6zJ1j63LrsjDhZ5-109" value="" style="edgeStyle=orthogonalEdgeStyle;rounded=0;hachureGap=4;orthogonalLoop=1;jettySize=auto;entryX=0;entryY=0.5;entryDx=0;entryDy=0;strokeColor=#E07A5F;fontFamily=Architects Daughter;fontSize=16;fontColor=default;fillColor=#F2CC8F;exitX=0.5;exitY=0;exitDx=0;exitDy=0;labelBackgroundColor=none;fontStyle=1;labelBorderColor=none;html=1;fontSource=https%3A%2F%2Ffonts.googleapis.com%2Fcss%3Ffamily%3DArchitects%2BDaughter;sketch=1;curveFitting=1;jiggle=2;" parent="1" source="3_fbX6zJ1j63LrsjDhZ5-110" target="BQeTc1KD_16eWAKUf4Th-24" edge="1">
          <mxGeometry relative="1" as="geometry">
            <mxPoint x="40" y="1030" as="sourcePoint" />
            <mxPoint x="70.75" y="580" as="targetPoint" />
            <Array as="points">
              <mxPoint x="40" y="580" />
            </Array>
          </mxGeometry>
        </mxCell>
        <mxCell id="3_fbX6zJ1j63LrsjDhZ5-87" value="Options" style="rhombus;fontColor=#393C56;fillColor=#F2CC8F;strokeColor=#E07A5F;hachureGap=4;fontFamily=Architects Daughter;fontSize=16;labelBackgroundColor=none;fontStyle=1;labelBorderColor=none;whiteSpace=wrap;html=1;fontSource=https%3A%2F%2Ffonts.googleapis.com%2Fcss%3Ffamily%3DArchitects%2BDaughter;sketch=1;curveFitting=1;jiggle=2;" parent="1" vertex="1">
          <mxGeometry x="180.5" y="1640" width="80" height="40" as="geometry" />
        </mxCell>
        <mxCell id="3_fbX6zJ1j63LrsjDhZ5-96" value="" style="edgeStyle=orthogonalEdgeStyle;rounded=0;hachureGap=4;orthogonalLoop=1;jettySize=auto;strokeColor=#E07A5F;fontFamily=Architects Daughter;fontSize=16;fontColor=default;fillColor=#F2CC8F;labelBackgroundColor=none;fontStyle=1;labelBorderColor=none;html=1;fontSource=https%3A%2F%2Ffonts.googleapis.com%2Fcss%3Ffamily%3DArchitects%2BDaughter;sketch=1;curveFitting=1;jiggle=2;" parent="1" source="3_fbX6zJ1j63LrsjDhZ5-91" target="3_fbX6zJ1j63LrsjDhZ5-97" edge="1">
          <mxGeometry relative="1" as="geometry">
            <mxPoint x="600" y="1660" as="targetPoint" />
          </mxGeometry>
        </mxCell>
        <mxCell id="3_fbX6zJ1j63LrsjDhZ5-91" value="Show Transcript" style="rounded=1;arcSize=40;fontColor=#393C56;fillColor=#F2CC8F;strokeColor=#E07A5F;hachureGap=4;fontFamily=Architects Daughter;fontSize=16;labelBackgroundColor=none;fontStyle=1;labelBorderColor=none;whiteSpace=wrap;html=1;fontSource=https%3A%2F%2Ffonts.googleapis.com%2Fcss%3Ffamily%3DArchitects%2BDaughter;sketch=1;curveFitting=1;jiggle=2;" parent="1" vertex="1">
          <mxGeometry x="360" y="1640" width="120" height="40" as="geometry" />
        </mxCell>
        <mxCell id="3_fbX6zJ1j63LrsjDhZ5-104" value="" style="edgeStyle=orthogonalEdgeStyle;rounded=0;hachureGap=4;orthogonalLoop=1;jettySize=auto;entryX=0.5;entryY=0;entryDx=0;entryDy=0;strokeColor=#E07A5F;fontFamily=Architects Daughter;fontSize=16;fontColor=default;fillColor=#F2CC8F;labelBackgroundColor=none;fontStyle=1;labelBorderColor=none;html=1;fontSource=https%3A%2F%2Ffonts.googleapis.com%2Fcss%3Ffamily%3DArchitects%2BDaughter;sketch=1;curveFitting=1;jiggle=2;" parent="1" source="3_fbX6zJ1j63LrsjDhZ5-93" target="3_fbX6zJ1j63LrsjDhZ5-101" edge="1">
          <mxGeometry relative="1" as="geometry" />
        </mxCell>
        <mxCell id="3_fbX6zJ1j63LrsjDhZ5-93" value="Register Courses" style="rounded=1;arcSize=40;fontColor=#393C56;fillColor=#F2CC8F;strokeColor=#E07A5F;hachureGap=4;fontFamily=Architects Daughter;fontSize=16;labelBackgroundColor=none;fontStyle=1;labelBorderColor=none;whiteSpace=wrap;html=1;fontSource=https%3A%2F%2Ffonts.googleapis.com%2Fcss%3Ffamily%3DArchitects%2BDaughter;sketch=1;curveFitting=1;jiggle=2;" parent="1" vertex="1">
          <mxGeometry x="160.75" y="1760" width="120" height="40" as="geometry" />
        </mxCell>
        <mxCell id="3_fbX6zJ1j63LrsjDhZ5-97" value="Print Details" style="rounded=1;arcSize=40;fontColor=#393C56;fillColor=#F2CC8F;strokeColor=#E07A5F;hachureGap=4;fontFamily=Architects Daughter;fontSize=16;labelBackgroundColor=none;fontStyle=1;labelBorderColor=none;whiteSpace=wrap;html=1;fontSource=https%3A%2F%2Ffonts.googleapis.com%2Fcss%3Ffamily%3DArchitects%2BDaughter;sketch=1;curveFitting=1;jiggle=2;" parent="1" vertex="1">
          <mxGeometry x="600" y="1640" width="120" height="40" as="geometry" />
        </mxCell>
        <mxCell id="3_fbX6zJ1j63LrsjDhZ5-101" value="Draft Exist?" style="rhombus;fontColor=#393C56;fillColor=#F2CC8F;strokeColor=#E07A5F;hachureGap=4;fontFamily=Architects Daughter;fontSize=16;labelBackgroundColor=none;fontStyle=1;labelBorderColor=none;whiteSpace=wrap;html=1;fontSource=https%3A%2F%2Ffonts.googleapis.com%2Fcss%3Ffamily%3DArchitects%2BDaughter;sketch=1;curveFitting=1;jiggle=2;" parent="1" vertex="1">
          <mxGeometry x="160" y="1880" width="120" height="80" as="geometry" />
        </mxCell>
        <mxCell id="3_fbX6zJ1j63LrsjDhZ5-102" value="No" style="edgeStyle=orthogonalEdgeStyle;align=left;verticalAlign=bottom;endArrow=open;endSize=8;strokeColor=#E07A5F;rounded=0;hachureGap=4;fontFamily=Architects Daughter;fontSize=16;fontColor=default;fillColor=#F2CC8F;labelBackgroundColor=none;fontStyle=1;labelBorderColor=none;html=1;fontSource=https%3A%2F%2Ffonts.googleapis.com%2Fcss%3Ffamily%3DArchitects%2BDaughter;sketch=1;curveFitting=1;jiggle=2;" parent="1" source="3_fbX6zJ1j63LrsjDhZ5-101" target="3_fbX6zJ1j63LrsjDhZ5-105" edge="1">
          <mxGeometry relative="1" as="geometry">
            <mxPoint x="400" y="1960" as="targetPoint" />
            <mxPoint as="offset" />
          </mxGeometry>
        </mxCell>
        <mxCell id="3_fbX6zJ1j63LrsjDhZ5-103" value="Yes" style="edgeStyle=orthogonalEdgeStyle;align=left;verticalAlign=top;endArrow=open;endSize=8;strokeColor=#E07A5F;rounded=0;hachureGap=4;fontFamily=Architects Daughter;fontSize=16;fontColor=default;fillColor=#F2CC8F;labelBackgroundColor=none;fontStyle=1;labelBorderColor=none;html=1;fontSource=https%3A%2F%2Ffonts.googleapis.com%2Fcss%3Ffamily%3DArchitects%2BDaughter;sketch=1;curveFitting=1;jiggle=2;" parent="1" source="3_fbX6zJ1j63LrsjDhZ5-101" target="3_fbX6zJ1j63LrsjDhZ5-107" edge="1">
          <mxGeometry x="-1" relative="1" as="geometry">
            <mxPoint x="221" y="2080" as="targetPoint" />
          </mxGeometry>
        </mxCell>
        <mxCell id="lhAk6RJFCS4VyfI1gilV-8" style="edgeStyle=orthogonalEdgeStyle;rounded=0;sketch=1;hachureGap=4;jiggle=2;curveFitting=1;orthogonalLoop=1;jettySize=auto;html=1;exitX=1;exitY=0.5;exitDx=0;exitDy=0;entryX=0;entryY=0.5;entryDx=0;entryDy=0;strokeColor=#E07A5F;fontFamily=Architects Daughter;fontSource=https%3A%2F%2Ffonts.googleapis.com%2Fcss%3Ffamily%3DArchitects%2BDaughter;fontSize=16;fontColor=default;fillColor=#F2CC8F;labelBackgroundColor=none;fontStyle=1" parent="1" source="3_fbX6zJ1j63LrsjDhZ5-105" target="lhAk6RJFCS4VyfI1gilV-6" edge="1">
          <mxGeometry relative="1" as="geometry" />
        </mxCell>
        <mxCell id="3_fbX6zJ1j63LrsjDhZ5-105" value="Create Draft" style="rounded=1;arcSize=40;fontColor=#393C56;fillColor=#F2CC8F;strokeColor=#E07A5F;hachureGap=4;fontFamily=Architects Daughter;fontSize=16;labelBackgroundColor=none;fontStyle=1;labelBorderColor=none;whiteSpace=wrap;html=1;fontSource=https%3A%2F%2Ffonts.googleapis.com%2Fcss%3Ffamily%3DArchitects%2BDaughter;sketch=1;curveFitting=1;jiggle=2;" parent="1" vertex="1">
          <mxGeometry x="160" y="2040" width="120" height="40" as="geometry" />
        </mxCell>
        <mxCell id="3_fbX6zJ1j63LrsjDhZ5-118" value="" style="edgeStyle=orthogonalEdgeStyle;rounded=0;hachureGap=4;orthogonalLoop=1;jettySize=auto;exitX=1;exitY=0.5;exitDx=0;exitDy=0;entryX=0;entryY=0.5;entryDx=0;entryDy=0;strokeColor=#E07A5F;fontFamily=Architects Daughter;fontSize=16;fontColor=default;fillColor=#F2CC8F;labelBackgroundColor=none;fontStyle=1;labelBorderColor=none;html=1;fontSource=https%3A%2F%2Ffonts.googleapis.com%2Fcss%3Ffamily%3DArchitects%2BDaughter;sketch=1;curveFitting=1;jiggle=2;" parent="1" source="3_fbX6zJ1j63LrsjDhZ5-107" target="3_fbX6zJ1j63LrsjDhZ5-115" edge="1">
          <mxGeometry relative="1" as="geometry" />
        </mxCell>
        <mxCell id="3_fbX6zJ1j63LrsjDhZ5-107" value="Show Draft" style="rounded=1;arcSize=40;fontColor=#393C56;fillColor=#F2CC8F;strokeColor=#E07A5F;hachureGap=4;fontFamily=Architects Daughter;fontSize=16;labelBackgroundColor=none;fontStyle=1;labelBorderColor=none;whiteSpace=wrap;html=1;fontSource=https%3A%2F%2Ffonts.googleapis.com%2Fcss%3Ffamily%3DArchitects%2BDaughter;sketch=1;curveFitting=1;jiggle=2;" parent="1" vertex="1">
          <mxGeometry x="360" y="1900" width="120" height="40" as="geometry" />
        </mxCell>
        <mxCell id="3_fbX6zJ1j63LrsjDhZ5-110" value="Log out" style="rounded=1;arcSize=40;fontColor=#393C56;fillColor=#F2CC8F;strokeColor=#E07A5F;hachureGap=4;fontFamily=Architects Daughter;fontSize=16;labelBackgroundColor=none;fontStyle=1;labelBorderColor=none;whiteSpace=wrap;html=1;fontSource=https%3A%2F%2Ffonts.googleapis.com%2Fcss%3Ffamily%3DArchitects%2BDaughter;sketch=1;curveFitting=1;jiggle=2;" parent="1" vertex="1">
          <mxGeometry x="20" y="1020" width="40" height="80" as="geometry" />
        </mxCell>
        <mxCell id="178SUdL-pKy2sh_oCuYC-83" style="edgeStyle=orthogonalEdgeStyle;rounded=0;hachureGap=4;orthogonalLoop=1;jettySize=auto;html=1;exitX=0.5;exitY=1;exitDx=0;exitDy=0;entryX=0.5;entryY=0;entryDx=0;entryDy=0;strokeColor=#E07A5F;fontFamily=Architects Daughter;fontSource=https%3A%2F%2Ffonts.googleapis.com%2Fcss%3Ffamily%3DArchitects%2BDaughter;fontSize=16;fontColor=default;fillColor=#F2CC8F;labelBackgroundColor=none;fontStyle=1;sketch=1;curveFitting=1;jiggle=2;" parent="1" source="3_fbX6zJ1j63LrsjDhZ5-115" target="178SUdL-pKy2sh_oCuYC-76" edge="1">
          <mxGeometry relative="1" as="geometry" />
        </mxCell>
        <mxCell id="3_fbX6zJ1j63LrsjDhZ5-115" value="Draft Options" style="rhombus;fontColor=#393C56;fillColor=#F2CC8F;strokeColor=#E07A5F;hachureGap=4;fontFamily=Architects Daughter;fontSize=16;labelBackgroundColor=none;fontStyle=1;labelBorderColor=none;whiteSpace=wrap;html=1;fontSource=https%3A%2F%2Ffonts.googleapis.com%2Fcss%3Ffamily%3DArchitects%2BDaughter;sketch=1;curveFitting=1;jiggle=2;" parent="1" vertex="1">
          <mxGeometry x="520" y="1880" width="120" height="80" as="geometry" />
        </mxCell>
        <mxCell id="178SUdL-pKy2sh_oCuYC-28" style="edgeStyle=orthogonalEdgeStyle;rounded=0;hachureGap=4;orthogonalLoop=1;jettySize=auto;html=1;exitX=1;exitY=0.5;exitDx=0;exitDy=0;entryX=0;entryY=0.5;entryDx=0;entryDy=0;fontFamily=Architects Daughter;fontSource=https%3A%2F%2Ffonts.googleapis.com%2Fcss%3Ffamily%3DArchitects%2BDaughter;fontSize=16;labelBackgroundColor=none;strokeColor=#E07A5F;fontColor=default;fontStyle=1;sketch=1;curveFitting=1;jiggle=2;" parent="1" source="3_fbX6zJ1j63LrsjDhZ5-125" target="178SUdL-pKy2sh_oCuYC-24" edge="1">
          <mxGeometry relative="1" as="geometry" />
        </mxCell>
        <mxCell id="3_fbX6zJ1j63LrsjDhZ5-125" value="Add Course" style="rounded=1;arcSize=40;fontColor=#393C56;fillColor=#F2CC8F;strokeColor=#E07A5F;hachureGap=4;fontFamily=Architects Daughter;fontSize=16;labelBackgroundColor=none;fontStyle=1;labelBorderColor=none;whiteSpace=wrap;html=1;fontSource=https%3A%2F%2Ffonts.googleapis.com%2Fcss%3Ffamily%3DArchitects%2BDaughter;sketch=1;curveFitting=1;jiggle=2;" parent="1" vertex="1">
          <mxGeometry x="1220" y="1760" width="120" height="40" as="geometry" />
        </mxCell>
        <mxCell id="178SUdL-pKy2sh_oCuYC-27" style="edgeStyle=orthogonalEdgeStyle;rounded=0;hachureGap=4;orthogonalLoop=1;jettySize=auto;html=1;exitX=0.5;exitY=0;exitDx=0;exitDy=0;entryX=0.5;entryY=1;entryDx=0;entryDy=0;fontFamily=Architects Daughter;fontSource=https%3A%2F%2Ffonts.googleapis.com%2Fcss%3Ffamily%3DArchitects%2BDaughter;fontSize=16;labelBackgroundColor=none;strokeColor=#E07A5F;fontColor=default;fontStyle=1;sketch=1;curveFitting=1;jiggle=2;" parent="1" source="3_fbX6zJ1j63LrsjDhZ5-127" target="178SUdL-pKy2sh_oCuYC-24" edge="1">
          <mxGeometry relative="1" as="geometry" />
        </mxCell>
        <mxCell id="3_fbX6zJ1j63LrsjDhZ5-127" value="Drop Course" style="rounded=1;arcSize=40;fontColor=#393C56;fillColor=#F2CC8F;strokeColor=#E07A5F;hachureGap=4;fontFamily=Architects Daughter;fontSize=16;labelBackgroundColor=none;fontStyle=1;labelBorderColor=none;whiteSpace=wrap;html=1;fontSource=https%3A%2F%2Ffonts.googleapis.com%2Fcss%3Ffamily%3DArchitects%2BDaughter;sketch=1;curveFitting=1;jiggle=2;" parent="1" vertex="1">
          <mxGeometry x="1440" y="1900" width="120" height="40" as="geometry" />
        </mxCell>
        <mxCell id="3_fbX6zJ1j63LrsjDhZ5-138" style="edgeStyle=orthogonalEdgeStyle;rounded=0;hachureGap=4;orthogonalLoop=1;jettySize=auto;html=1;exitX=0.5;exitY=1;exitDx=0;exitDy=0;entryX=0.5;entryY=0;entryDx=0;entryDy=0;strokeColor=#E07A5F;fontFamily=Architects Daughter;fontSize=16;fontColor=default;fillColor=#F2CC8F;labelBackgroundColor=none;fontStyle=1;fontSource=https%3A%2F%2Ffonts.googleapis.com%2Fcss%3Ffamily%3DArchitects%2BDaughter;sketch=1;curveFitting=1;jiggle=2;" parent="1" source="3_fbX6zJ1j63LrsjDhZ5-135" target="3_fbX6zJ1j63LrsjDhZ5-87" edge="1">
          <mxGeometry relative="1" as="geometry" />
        </mxCell>
        <mxCell id="3_fbX6zJ1j63LrsjDhZ5-135" value="List Menu Items" style="rounded=1;whiteSpace=wrap;html=1;arcSize=40;fontColor=#393C56;fillColor=#F2CC8F;strokeColor=#E07A5F;hachureGap=4;fontFamily=Architects Daughter;fontSize=16;labelBackgroundColor=none;fontStyle=1;fontSource=https%3A%2F%2Ffonts.googleapis.com%2Fcss%3Ffamily%3DArchitects%2BDaughter;sketch=1;curveFitting=1;jiggle=2;" parent="1" vertex="1">
          <mxGeometry x="160.75" y="1480" width="120" height="40" as="geometry" />
        </mxCell>
        <mxCell id="3_fbX6zJ1j63LrsjDhZ5-147" value="" style="ellipse;html=1;shape=endState;fillColor=#F2CC8F;strokeColor=#E07A5F;fontColor=#393C56;labelBackgroundColor=none;fontFamily=Architects Daughter;fontSource=https%3A%2F%2Ffonts.googleapis.com%2Fcss%3Ffamily%3DArchitects%2BDaughter;fontStyle=1;fontSize=16;sketch=1;curveFitting=1;jiggle=2;" parent="1" vertex="1">
          <mxGeometry x="461.5" y="280" width="39" height="40" as="geometry" />
        </mxCell>
        <mxCell id="3_fbX6zJ1j63LrsjDhZ5-148" value="Input &#39;0&#39; (Zero) Saves All Changes, Terminates the Program and Exits Totally" style="rounded=1;whiteSpace=wrap;html=1;arcSize=40;fontColor=#393C56;fillColor=#F2CC8F;strokeColor=#E07A5F;labelBackgroundColor=none;fontFamily=Architects Daughter;fontSource=https%3A%2F%2Ffonts.googleapis.com%2Fcss%3Ffamily%3DArchitects%2BDaughter;fontStyle=1;fontSize=16;sketch=1;curveFitting=1;jiggle=2;" parent="1" vertex="1">
          <mxGeometry x="360" y="80" width="240" height="120" as="geometry" />
        </mxCell>
        <mxCell id="3_fbX6zJ1j63LrsjDhZ5-149" value="" style="edgeStyle=orthogonalEdgeStyle;html=1;verticalAlign=bottom;endArrow=open;endSize=8;strokeColor=#E07A5F;rounded=0;fontColor=default;fillColor=#F2CC8F;entryX=0.5;entryY=0;entryDx=0;entryDy=0;labelBackgroundColor=none;fontFamily=Architects Daughter;fontSource=https%3A%2F%2Ffonts.googleapis.com%2Fcss%3Ffamily%3DArchitects%2BDaughter;fontStyle=1;fontSize=16;sketch=1;curveFitting=1;jiggle=2;" parent="1" source="3_fbX6zJ1j63LrsjDhZ5-148" target="3_fbX6zJ1j63LrsjDhZ5-147" edge="1">
          <mxGeometry relative="1" as="geometry">
            <mxPoint x="420" y="180" as="targetPoint" />
          </mxGeometry>
        </mxCell>
        <mxCell id="178SUdL-pKy2sh_oCuYC-47" style="edgeStyle=orthogonalEdgeStyle;rounded=0;hachureGap=4;orthogonalLoop=1;jettySize=auto;html=1;exitX=1;exitY=0.5;exitDx=0;exitDy=0;entryX=0;entryY=0.5;entryDx=0;entryDy=0;strokeColor=#E07A5F;fontFamily=Architects Daughter;fontSource=https%3A%2F%2Ffonts.googleapis.com%2Fcss%3Ffamily%3DArchitects%2BDaughter;fontSize=16;fontColor=default;fillColor=#F2CC8F;fontStyle=1;labelBackgroundColor=none;sketch=1;curveFitting=1;jiggle=2;" parent="1" source="178SUdL-pKy2sh_oCuYC-2" target="178SUdL-pKy2sh_oCuYC-9" edge="1">
          <mxGeometry relative="1" as="geometry" />
        </mxCell>
        <mxCell id="178SUdL-pKy2sh_oCuYC-2" value="Select Course" style="rounded=1;whiteSpace=wrap;html=1;arcSize=40;fontColor=#393C56;fillColor=#F2CC8F;strokeColor=#E07A5F;hachureGap=4;fontFamily=Architects Daughter;fontSource=https%3A%2F%2Ffonts.googleapis.com%2Fcss%3Ffamily%3DArchitects%2BDaughter;fontSize=16;labelBackgroundColor=none;fontStyle=1;sketch=1;curveFitting=1;jiggle=2;" parent="1" vertex="1">
          <mxGeometry x="1040" y="1900" width="120" height="40" as="geometry" />
        </mxCell>
        <mxCell id="178SUdL-pKy2sh_oCuYC-13" style="edgeStyle=orthogonalEdgeStyle;rounded=0;hachureGap=4;orthogonalLoop=1;jettySize=auto;html=1;exitX=0.5;exitY=0;exitDx=0;exitDy=0;entryX=0.5;entryY=1;entryDx=0;entryDy=0;fontFamily=Architects Daughter;fontSource=https%3A%2F%2Ffonts.googleapis.com%2Fcss%3Ffamily%3DArchitects%2BDaughter;fontSize=16;labelBackgroundColor=none;strokeColor=#E07A5F;fontColor=default;fontStyle=1;sketch=1;curveFitting=1;jiggle=2;" parent="1" source="178SUdL-pKy2sh_oCuYC-9" target="3_fbX6zJ1j63LrsjDhZ5-125" edge="1">
          <mxGeometry relative="1" as="geometry" />
        </mxCell>
        <mxCell id="178SUdL-pKy2sh_oCuYC-16" value="Yes" style="edgeLabel;html=1;align=center;verticalAlign=middle;resizable=0;points=[];fontSize=16;fontFamily=Architects Daughter;labelBackgroundColor=none;fontColor=#393C56;fontStyle=1;fontSource=https%3A%2F%2Ffonts.googleapis.com%2Fcss%3Ffamily%3DArchitects%2BDaughter;sketch=1;curveFitting=1;jiggle=2;" parent="178SUdL-pKy2sh_oCuYC-13" vertex="1" connectable="0">
          <mxGeometry x="-0.2556" y="-1" relative="1" as="geometry">
            <mxPoint as="offset" />
          </mxGeometry>
        </mxCell>
        <mxCell id="178SUdL-pKy2sh_oCuYC-14" style="edgeStyle=orthogonalEdgeStyle;rounded=0;hachureGap=4;orthogonalLoop=1;jettySize=auto;html=1;exitX=1;exitY=0.5;exitDx=0;exitDy=0;entryX=0;entryY=0.5;entryDx=0;entryDy=0;fontFamily=Architects Daughter;fontSource=https%3A%2F%2Ffonts.googleapis.com%2Fcss%3Ffamily%3DArchitects%2BDaughter;fontSize=16;labelBackgroundColor=none;strokeColor=#E07A5F;fontColor=default;fontStyle=1;sketch=1;curveFitting=1;jiggle=2;" parent="1" source="178SUdL-pKy2sh_oCuYC-9" target="3_fbX6zJ1j63LrsjDhZ5-127" edge="1">
          <mxGeometry relative="1" as="geometry" />
        </mxCell>
        <mxCell id="178SUdL-pKy2sh_oCuYC-15" value="No" style="edgeLabel;html=1;align=center;verticalAlign=middle;resizable=0;points=[];fontSize=16;fontFamily=Architects Daughter;labelBackgroundColor=none;fontColor=#393C56;fontStyle=1;fontSource=https%3A%2F%2Ffonts.googleapis.com%2Fcss%3Ffamily%3DArchitects%2BDaughter;sketch=1;curveFitting=1;jiggle=2;" parent="178SUdL-pKy2sh_oCuYC-14" vertex="1" connectable="0">
          <mxGeometry x="0.0398" y="1" relative="1" as="geometry">
            <mxPoint as="offset" />
          </mxGeometry>
        </mxCell>
        <mxCell id="178SUdL-pKy2sh_oCuYC-9" value="Should Be Registered?" style="rhombus;whiteSpace=wrap;html=1;fontColor=#393C56;fillColor=#F2CC8F;strokeColor=#E07A5F;hachureGap=4;fontFamily=Architects Daughter;fontSource=https%3A%2F%2Ffonts.googleapis.com%2Fcss%3Ffamily%3DArchitects%2BDaughter;fontSize=16;labelBackgroundColor=none;fontStyle=1;sketch=1;curveFitting=1;jiggle=2;" parent="1" vertex="1">
          <mxGeometry x="1200" y="1860" width="160" height="120" as="geometry" />
        </mxCell>
        <mxCell id="178SUdL-pKy2sh_oCuYC-22" value="List Selected Courses" style="rounded=1;whiteSpace=wrap;html=1;arcSize=40;fontColor=#393C56;fillColor=#F2CC8F;strokeColor=#E07A5F;hachureGap=4;fontFamily=Architects Daughter;fontSource=https%3A%2F%2Ffonts.googleapis.com%2Fcss%3Ffamily%3DArchitects%2BDaughter;fontSize=16;labelBackgroundColor=none;fontStyle=1;sketch=1;curveFitting=1;jiggle=2;" parent="1" vertex="1">
          <mxGeometry x="760" y="1840" width="157.18" height="40" as="geometry" />
        </mxCell>
        <mxCell id="178SUdL-pKy2sh_oCuYC-23" value="List Unselected Courses" style="rounded=1;whiteSpace=wrap;html=1;arcSize=40;fontColor=#393C56;fillColor=#F2CC8F;strokeColor=#E07A5F;hachureGap=4;fontFamily=Architects Daughter;fontSource=https%3A%2F%2Ffonts.googleapis.com%2Fcss%3Ffamily%3DArchitects%2BDaughter;fontSize=16;labelBackgroundColor=none;fontStyle=1;sketch=1;curveFitting=1;jiggle=2;" parent="1" vertex="1">
          <mxGeometry x="760" y="1960" width="157.18" height="40" as="geometry" />
        </mxCell>
        <mxCell id="178SUdL-pKy2sh_oCuYC-29" style="edgeStyle=orthogonalEdgeStyle;rounded=0;hachureGap=4;orthogonalLoop=1;jettySize=auto;html=1;fontFamily=Architects Daughter;fontSource=https%3A%2F%2Ffonts.googleapis.com%2Fcss%3Ffamily%3DArchitects%2BDaughter;fontSize=16;entryX=0.5;entryY=0;entryDx=0;entryDy=0;labelBackgroundColor=none;strokeColor=#E07A5F;fontColor=default;exitX=0.5;exitY=0;exitDx=0;exitDy=0;fontStyle=1;sketch=1;curveFitting=1;jiggle=2;" parent="1" source="178SUdL-pKy2sh_oCuYC-24" target="3_fbX6zJ1j63LrsjDhZ5-115" edge="1">
          <mxGeometry relative="1" as="geometry">
            <mxPoint x="620.5" y="1890" as="targetPoint" />
            <mxPoint x="1470" y="1700" as="sourcePoint" />
            <Array as="points">
              <mxPoint x="1500" y="1720" />
              <mxPoint x="580" y="1720" />
            </Array>
          </mxGeometry>
        </mxCell>
        <mxCell id="178SUdL-pKy2sh_oCuYC-24" value="" style="rhombus;whiteSpace=wrap;html=1;fontColor=#393C56;fillColor=#F2CC8F;strokeColor=#E07A5F;hachureGap=4;fontFamily=Architects Daughter;fontSource=https%3A%2F%2Ffonts.googleapis.com%2Fcss%3Ffamily%3DArchitects%2BDaughter;fontSize=16;labelBackgroundColor=none;fontStyle=1;sketch=1;curveFitting=1;jiggle=2;" parent="1" vertex="1">
          <mxGeometry x="1460" y="1740" width="80" height="80" as="geometry" />
        </mxCell>
        <mxCell id="178SUdL-pKy2sh_oCuYC-34" style="edgeStyle=orthogonalEdgeStyle;rounded=0;hachureGap=4;orthogonalLoop=1;jettySize=auto;html=1;exitX=0.848;exitY=0.449;exitDx=0;exitDy=0;exitPerimeter=0;entryX=0;entryY=0.5;entryDx=0;entryDy=0;strokeColor=#E07A5F;fontFamily=Architects Daughter;fontSource=https%3A%2F%2Ffonts.googleapis.com%2Fcss%3Ffamily%3DArchitects%2BDaughter;fontSize=16;fontColor=default;fillColor=#F2CC8F;fontStyle=1;labelBackgroundColor=none;sketch=1;curveFitting=1;jiggle=2;" parent="1" source="178SUdL-pKy2sh_oCuYC-30" target="178SUdL-pKy2sh_oCuYC-22" edge="1">
          <mxGeometry relative="1" as="geometry" />
        </mxCell>
        <mxCell id="178SUdL-pKy2sh_oCuYC-35" style="edgeStyle=orthogonalEdgeStyle;rounded=0;hachureGap=4;orthogonalLoop=1;jettySize=auto;html=1;exitX=0.097;exitY=0.449;exitDx=0;exitDy=0;exitPerimeter=0;entryX=0;entryY=0.5;entryDx=0;entryDy=0;strokeColor=#E07A5F;fontFamily=Architects Daughter;fontSource=https%3A%2F%2Ffonts.googleapis.com%2Fcss%3Ffamily%3DArchitects%2BDaughter;fontSize=16;fontColor=default;fillColor=#F2CC8F;fontStyle=1;labelBackgroundColor=none;sketch=1;curveFitting=1;jiggle=2;" parent="1" source="178SUdL-pKy2sh_oCuYC-30" target="178SUdL-pKy2sh_oCuYC-23" edge="1">
          <mxGeometry relative="1" as="geometry" />
        </mxCell>
        <mxCell id="178SUdL-pKy2sh_oCuYC-30" value="" style="shape=line;html=1;strokeWidth=6;strokeColor=#E07A5F;hachureGap=4;fontFamily=Architects Daughter;fontSource=https%3A%2F%2Ffonts.googleapis.com%2Fcss%3Ffamily%3DArchitects%2BDaughter;fontSize=16;fontColor=#393C56;fillColor=#F2CC8F;rotation=-90;fontStyle=1;labelBackgroundColor=none;sketch=1;curveFitting=1;jiggle=2;" parent="1" vertex="1">
          <mxGeometry x="638.75" y="1910.62" width="159.75" height="10" as="geometry" />
        </mxCell>
        <mxCell id="178SUdL-pKy2sh_oCuYC-43" style="edgeStyle=orthogonalEdgeStyle;rounded=0;hachureGap=4;orthogonalLoop=1;jettySize=auto;html=1;strokeColor=#E07A5F;fontFamily=Architects Daughter;fontSource=https%3A%2F%2Ffonts.googleapis.com%2Fcss%3Ffamily%3DArchitects%2BDaughter;fontSize=16;fontColor=default;fillColor=#F2CC8F;exitX=0.516;exitY=0.4;exitDx=0;exitDy=0;exitPerimeter=0;fontStyle=1;labelBackgroundColor=none;sketch=1;curveFitting=1;jiggle=2;" parent="1" source="178SUdL-pKy2sh_oCuYC-38" edge="1">
          <mxGeometry relative="1" as="geometry">
            <mxPoint x="1040" y="1918" as="targetPoint" />
          </mxGeometry>
        </mxCell>
        <mxCell id="178SUdL-pKy2sh_oCuYC-38" value="" style="shape=line;html=1;strokeWidth=6;strokeColor=#E07A5F;hachureGap=4;fontFamily=Architects Daughter;fontSource=https%3A%2F%2Ffonts.googleapis.com%2Fcss%3Ffamily%3DArchitects%2BDaughter;fontSize=16;fontColor=#393C56;fillColor=#F2CC8F;rotation=90;fontStyle=1;labelBackgroundColor=none;sketch=1;curveFitting=1;jiggle=2;" parent="1" vertex="1">
          <mxGeometry x="882.5999999999999" y="1910.62" width="165" height="10" as="geometry" />
        </mxCell>
        <mxCell id="178SUdL-pKy2sh_oCuYC-41" style="edgeStyle=orthogonalEdgeStyle;rounded=0;hachureGap=4;orthogonalLoop=1;jettySize=auto;html=1;exitX=1;exitY=0.5;exitDx=0;exitDy=0;entryX=0.167;entryY=0.55;entryDx=0;entryDy=0;entryPerimeter=0;strokeColor=#E07A5F;fontFamily=Architects Daughter;fontSource=https%3A%2F%2Ffonts.googleapis.com%2Fcss%3Ffamily%3DArchitects%2BDaughter;fontSize=16;fontColor=default;fillColor=#F2CC8F;fontStyle=1;labelBackgroundColor=none;sketch=1;curveFitting=1;jiggle=2;" parent="1" source="178SUdL-pKy2sh_oCuYC-22" target="178SUdL-pKy2sh_oCuYC-38" edge="1">
          <mxGeometry relative="1" as="geometry">
            <Array as="points">
              <mxPoint x="934.18" y="1860" />
            </Array>
          </mxGeometry>
        </mxCell>
        <mxCell id="178SUdL-pKy2sh_oCuYC-46" style="edgeStyle=orthogonalEdgeStyle;rounded=0;hachureGap=4;orthogonalLoop=1;jettySize=auto;html=1;exitX=1;exitY=0.5;exitDx=0;exitDy=0;entryX=0.889;entryY=0.472;entryDx=0;entryDy=0;entryPerimeter=0;strokeColor=#E07A5F;fontFamily=Architects Daughter;fontSource=https%3A%2F%2Ffonts.googleapis.com%2Fcss%3Ffamily%3DArchitects%2BDaughter;fontSize=16;fontColor=default;fillColor=#F2CC8F;fontStyle=1;labelBackgroundColor=none;sketch=1;curveFitting=1;jiggle=2;" parent="1" source="178SUdL-pKy2sh_oCuYC-23" target="178SUdL-pKy2sh_oCuYC-38" edge="1">
          <mxGeometry relative="1" as="geometry" />
        </mxCell>
        <mxCell id="178SUdL-pKy2sh_oCuYC-53" value="" style="edgeStyle=orthogonalEdgeStyle;rounded=0;hachureGap=4;orthogonalLoop=1;jettySize=auto;html=1;strokeColor=#E07A5F;fontFamily=Architects Daughter;fontSource=https%3A%2F%2Ffonts.googleapis.com%2Fcss%3Ffamily%3DArchitects%2BDaughter;fontSize=16;fontColor=default;fillColor=#F2CC8F;labelBackgroundColor=none;fontStyle=1;sketch=1;curveFitting=1;jiggle=2;" parent="1" source="178SUdL-pKy2sh_oCuYC-49" target="178SUdL-pKy2sh_oCuYC-52" edge="1">
          <mxGeometry relative="1" as="geometry" />
        </mxCell>
        <mxCell id="178SUdL-pKy2sh_oCuYC-49" value="Dispatch Request" style="rounded=1;whiteSpace=wrap;html=1;arcSize=40;fontColor=#393C56;fillColor=#F2CC8F;strokeColor=#E07A5F;hachureGap=4;fontFamily=Architects Daughter;fontSource=https%3A%2F%2Ffonts.googleapis.com%2Fcss%3Ffamily%3DArchitects%2BDaughter;fontSize=16;fontStyle=1;labelBackgroundColor=none;sketch=1;curveFitting=1;jiggle=2;" parent="1" vertex="1">
          <mxGeometry x="520" y="2240" width="120" height="40" as="geometry" />
        </mxCell>
        <mxCell id="178SUdL-pKy2sh_oCuYC-55" value="" style="edgeStyle=orthogonalEdgeStyle;rounded=0;hachureGap=4;orthogonalLoop=1;jettySize=auto;html=1;strokeColor=#E07A5F;fontFamily=Architects Daughter;fontSource=https%3A%2F%2Ffonts.googleapis.com%2Fcss%3Ffamily%3DArchitects%2BDaughter;fontSize=16;fontColor=default;fillColor=#F2CC8F;labelBackgroundColor=none;fontStyle=1;sketch=1;curveFitting=1;jiggle=2;" parent="1" source="178SUdL-pKy2sh_oCuYC-52" target="178SUdL-pKy2sh_oCuYC-54" edge="1">
          <mxGeometry relative="1" as="geometry" />
        </mxCell>
        <mxCell id="178SUdL-pKy2sh_oCuYC-52" value="Notify Advisor" style="rounded=1;whiteSpace=wrap;html=1;arcSize=40;fontColor=#393C56;fillColor=#F2CC8F;strokeColor=#E07A5F;hachureGap=4;fontFamily=Architects Daughter;fontSource=https%3A%2F%2Ffonts.googleapis.com%2Fcss%3Ffamily%3DArchitects%2BDaughter;fontSize=16;fontStyle=1;labelBackgroundColor=none;sketch=1;curveFitting=1;jiggle=2;" parent="1" vertex="1">
          <mxGeometry x="301" y="2240" width="120" height="40" as="geometry" />
        </mxCell>
        <mxCell id="178SUdL-pKy2sh_oCuYC-57" value="" style="edgeStyle=orthogonalEdgeStyle;rounded=0;hachureGap=4;orthogonalLoop=1;jettySize=auto;html=1;strokeColor=#E07A5F;fontFamily=Architects Daughter;fontSource=https%3A%2F%2Ffonts.googleapis.com%2Fcss%3Ffamily%3DArchitects%2BDaughter;fontSize=16;fontColor=default;fillColor=#F2CC8F;entryX=0.5;entryY=1;entryDx=0;entryDy=0;labelBackgroundColor=none;fontStyle=1;sketch=1;curveFitting=1;jiggle=2;" parent="1" source="178SUdL-pKy2sh_oCuYC-54" target="178SUdL-pKy2sh_oCuYC-56" edge="1">
          <mxGeometry relative="1" as="geometry">
            <mxPoint x="40" y="1700" as="targetPoint" />
            <Array as="points">
              <mxPoint x="40" y="2140" />
            </Array>
          </mxGeometry>
        </mxCell>
        <mxCell id="178SUdL-pKy2sh_oCuYC-54" value="System Updated" style="rounded=1;whiteSpace=wrap;html=1;arcSize=40;fontColor=#393C56;fillColor=#F2CC8F;strokeColor=#E07A5F;hachureGap=4;fontFamily=Architects Daughter;fontSource=https%3A%2F%2Ffonts.googleapis.com%2Fcss%3Ffamily%3DArchitects%2BDaughter;fontSize=16;fontStyle=1;labelBackgroundColor=none;sketch=1;curveFitting=1;jiggle=2;" parent="1" vertex="1">
          <mxGeometry x="80" y="2120" width="120" height="40" as="geometry" />
        </mxCell>
        <mxCell id="178SUdL-pKy2sh_oCuYC-59" style="edgeStyle=orthogonalEdgeStyle;rounded=0;hachureGap=4;orthogonalLoop=1;jettySize=auto;html=1;exitX=0.5;exitY=0;exitDx=0;exitDy=0;entryX=0.5;entryY=1;entryDx=0;entryDy=0;strokeColor=#E07A5F;fontFamily=Architects Daughter;fontSource=https%3A%2F%2Ffonts.googleapis.com%2Fcss%3Ffamily%3DArchitects%2BDaughter;fontSize=16;fontColor=default;fillColor=#F2CC8F;labelBackgroundColor=none;fontStyle=1;sketch=1;curveFitting=1;jiggle=2;" parent="1" source="178SUdL-pKy2sh_oCuYC-56" target="3_fbX6zJ1j63LrsjDhZ5-110" edge="1">
          <mxGeometry relative="1" as="geometry">
            <mxPoint x="40" y="1620" as="sourcePoint" />
            <mxPoint x="40" y="1110" as="targetPoint" />
          </mxGeometry>
        </mxCell>
        <mxCell id="178SUdL-pKy2sh_oCuYC-61" value="Yes" style="edgeLabel;html=1;align=center;verticalAlign=middle;resizable=0;points=[];fontSize=16;fontFamily=Architects Daughter;fontColor=#393C56;labelBackgroundColor=none;fontStyle=1;sketch=1;curveFitting=1;jiggle=2;fontSource=https%3A%2F%2Ffonts.googleapis.com%2Fcss%3Ffamily%3DArchitects%2BDaughter;" parent="178SUdL-pKy2sh_oCuYC-59" vertex="1" connectable="0">
          <mxGeometry x="-0.8521" relative="1" as="geometry">
            <mxPoint y="-1" as="offset" />
          </mxGeometry>
        </mxCell>
        <mxCell id="178SUdL-pKy2sh_oCuYC-60" style="edgeStyle=orthogonalEdgeStyle;rounded=0;hachureGap=4;orthogonalLoop=1;jettySize=auto;html=1;exitX=1;exitY=0.5;exitDx=0;exitDy=0;entryX=0;entryY=0.5;entryDx=0;entryDy=0;strokeColor=#E07A5F;fontFamily=Architects Daughter;fontSource=https%3A%2F%2Ffonts.googleapis.com%2Fcss%3Ffamily%3DArchitects%2BDaughter;fontSize=16;fontColor=default;fillColor=#F2CC8F;labelBackgroundColor=none;fontStyle=1;sketch=1;curveFitting=1;jiggle=2;" parent="1" source="178SUdL-pKy2sh_oCuYC-56" target="3_fbX6zJ1j63LrsjDhZ5-87" edge="1">
          <mxGeometry relative="1" as="geometry">
            <mxPoint x="80" y="1660" as="sourcePoint" />
          </mxGeometry>
        </mxCell>
        <mxCell id="178SUdL-pKy2sh_oCuYC-62" value="No" style="edgeLabel;html=1;align=center;verticalAlign=middle;resizable=0;points=[];fontSize=16;fontFamily=Architects Daughter;fontColor=#393C56;labelBackgroundColor=none;fontStyle=1;sketch=1;curveFitting=1;jiggle=2;fontSource=https%3A%2F%2Ffonts.googleapis.com%2Fcss%3Ffamily%3DArchitects%2BDaughter;" parent="178SUdL-pKy2sh_oCuYC-60" vertex="1" connectable="0">
          <mxGeometry x="-0.1638" y="-2" relative="1" as="geometry">
            <mxPoint as="offset" />
          </mxGeometry>
        </mxCell>
        <mxCell id="178SUdL-pKy2sh_oCuYC-56" value="Want to Log out?" style="rhombus;whiteSpace=wrap;html=1;fontSize=16;fontFamily=Architects Daughter;fillColor=#F2CC8F;strokeColor=#E07A5F;fontColor=#393C56;rounded=1;arcSize=40;hachureGap=4;fontSource=https%3A%2F%2Ffonts.googleapis.com%2Fcss%3Ffamily%3DArchitects%2BDaughter;fontStyle=1;labelBackgroundColor=none;sketch=1;curveFitting=1;jiggle=2;" parent="1" vertex="1">
          <mxGeometry y="1620" width="80" height="80" as="geometry" />
        </mxCell>
        <mxCell id="178SUdL-pKy2sh_oCuYC-64" style="edgeStyle=orthogonalEdgeStyle;rounded=0;hachureGap=4;orthogonalLoop=1;jettySize=auto;html=1;exitX=1;exitY=0.5;exitDx=0;exitDy=0;entryX=0.469;entryY=0.389;entryDx=0;entryDy=0;entryPerimeter=0;strokeColor=#E07A5F;fontFamily=Architects Daughter;fontSource=https%3A%2F%2Ffonts.googleapis.com%2Fcss%3Ffamily%3DArchitects%2BDaughter;fontSize=16;fontColor=default;fillColor=#F2CC8F;labelBackgroundColor=none;fontStyle=1;sketch=1;curveFitting=1;jiggle=2;" parent="1" source="3_fbX6zJ1j63LrsjDhZ5-115" target="178SUdL-pKy2sh_oCuYC-30" edge="1">
          <mxGeometry relative="1" as="geometry" />
        </mxCell>
        <mxCell id="178SUdL-pKy2sh_oCuYC-67" value="" style="edgeStyle=orthogonalEdgeStyle;rounded=0;hachureGap=4;orthogonalLoop=1;jettySize=auto;html=1;strokeColor=#E07A5F;fontFamily=Architects Daughter;fontSource=https%3A%2F%2Ffonts.googleapis.com%2Fcss%3Ffamily%3DArchitects%2BDaughter;fontSize=16;fontColor=default;fillColor=#F2CC8F;labelBackgroundColor=none;fontStyle=1;sketch=1;curveFitting=1;jiggle=2;" parent="1" source="178SUdL-pKy2sh_oCuYC-65" target="3_fbX6zJ1j63LrsjDhZ5-30" edge="1">
          <mxGeometry relative="1" as="geometry" />
        </mxCell>
        <mxCell id="178SUdL-pKy2sh_oCuYC-65" value="Notify Student" style="rounded=1;arcSize=40;fontColor=#393C56;fillColor=#F2CC8F;strokeColor=#E07A5F;hachureGap=4;fontFamily=Architects Daughter;fontSize=16;fontStyle=1;labelBackgroundColor=none;labelBorderColor=none;whiteSpace=wrap;html=1;fontSource=https%3A%2F%2Ffonts.googleapis.com%2Fcss%3Ffamily%3DArchitects%2BDaughter;sketch=1;curveFitting=1;jiggle=2;" parent="1" vertex="1">
          <mxGeometry x="400" y="1120" width="160" height="40" as="geometry" />
        </mxCell>
        <mxCell id="178SUdL-pKy2sh_oCuYC-72" style="edgeStyle=orthogonalEdgeStyle;rounded=0;hachureGap=4;orthogonalLoop=1;jettySize=auto;html=1;exitX=0;exitY=0.5;exitDx=0;exitDy=0;entryX=0.25;entryY=0.5;entryDx=0;entryDy=0;entryPerimeter=0;strokeColor=#E07A5F;fontFamily=Architects Daughter;fontSource=https%3A%2F%2Ffonts.googleapis.com%2Fcss%3Ffamily%3DArchitects%2BDaughter;fontSize=16;fontColor=default;fillColor=#F2CC8F;labelBackgroundColor=none;fontStyle=1;sketch=1;curveFitting=1;jiggle=2;" parent="1" source="3_fbX6zJ1j63LrsjDhZ5-35" target="3_fbX6zJ1j63LrsjDhZ5-72" edge="1">
          <mxGeometry relative="1" as="geometry" />
        </mxCell>
        <mxCell id="178SUdL-pKy2sh_oCuYC-73" style="edgeStyle=orthogonalEdgeStyle;rounded=0;hachureGap=4;orthogonalLoop=1;jettySize=auto;html=1;exitX=0;exitY=0.5;exitDx=0;exitDy=0;entryX=0.75;entryY=0.5;entryDx=0;entryDy=0;entryPerimeter=0;strokeColor=#E07A5F;fontFamily=Architects Daughter;fontSource=https%3A%2F%2Ffonts.googleapis.com%2Fcss%3Ffamily%3DArchitects%2BDaughter;fontSize=16;fontColor=default;fillColor=#F2CC8F;labelBackgroundColor=none;fontStyle=1;sketch=1;curveFitting=1;jiggle=2;" parent="1" source="3_fbX6zJ1j63LrsjDhZ5-37" target="3_fbX6zJ1j63LrsjDhZ5-72" edge="1">
          <mxGeometry relative="1" as="geometry" />
        </mxCell>
        <mxCell id="178SUdL-pKy2sh_oCuYC-79" style="edgeStyle=orthogonalEdgeStyle;rounded=0;hachureGap=4;orthogonalLoop=1;jettySize=auto;html=1;exitX=0.5;exitY=1;exitDx=0;exitDy=0;entryX=0.5;entryY=0;entryDx=0;entryDy=0;strokeColor=#E07A5F;fontFamily=Architects Daughter;fontSource=https%3A%2F%2Ffonts.googleapis.com%2Fcss%3Ffamily%3DArchitects%2BDaughter;fontSize=16;fontColor=default;fillColor=#F2CC8F;labelBackgroundColor=none;fontStyle=1;sketch=1;curveFitting=1;jiggle=2;" parent="1" source="178SUdL-pKy2sh_oCuYC-76" target="178SUdL-pKy2sh_oCuYC-49" edge="1">
          <mxGeometry relative="1" as="geometry" />
        </mxCell>
        <mxCell id="178SUdL-pKy2sh_oCuYC-80" value="Yes" style="edgeLabel;html=1;align=center;verticalAlign=middle;resizable=0;points=[];fontSize=16;fontFamily=Architects Daughter;fontColor=#393C56;labelBackgroundColor=none;fontStyle=1;sketch=1;curveFitting=1;jiggle=2;fontSource=https%3A%2F%2Ffonts.googleapis.com%2Fcss%3Ffamily%3DArchitects%2BDaughter;" parent="178SUdL-pKy2sh_oCuYC-79" vertex="1" connectable="0">
          <mxGeometry x="-0.4695" y="3" relative="1" as="geometry">
            <mxPoint x="-2" y="14" as="offset" />
          </mxGeometry>
        </mxCell>
        <mxCell id="178SUdL-pKy2sh_oCuYC-81" style="edgeStyle=orthogonalEdgeStyle;rounded=0;hachureGap=4;orthogonalLoop=1;jettySize=auto;html=1;exitX=0;exitY=0.5;exitDx=0;exitDy=0;strokeColor=#E07A5F;fontFamily=Architects Daughter;fontSource=https%3A%2F%2Ffonts.googleapis.com%2Fcss%3Ffamily%3DArchitects%2BDaughter;fontSize=16;fontColor=default;fillColor=#F2CC8F;labelBackgroundColor=none;fontStyle=1;sketch=1;curveFitting=1;jiggle=2;" parent="1" source="178SUdL-pKy2sh_oCuYC-76" target="178SUdL-pKy2sh_oCuYC-84" edge="1">
          <mxGeometry relative="1" as="geometry">
            <mxPoint x="420" y="2140" as="targetPoint" />
          </mxGeometry>
        </mxCell>
        <mxCell id="178SUdL-pKy2sh_oCuYC-82" value="No" style="edgeLabel;html=1;align=center;verticalAlign=middle;resizable=0;points=[];fontSize=16;fontFamily=Architects Daughter;fontColor=#393C56;labelBackgroundColor=none;fontStyle=1;sketch=1;curveFitting=1;jiggle=2;fontSource=https%3A%2F%2Ffonts.googleapis.com%2Fcss%3Ffamily%3DArchitects%2BDaughter;" parent="178SUdL-pKy2sh_oCuYC-81" vertex="1" connectable="0">
          <mxGeometry x="-0.7798" y="-4" relative="1" as="geometry">
            <mxPoint x="-29" y="4" as="offset" />
          </mxGeometry>
        </mxCell>
        <mxCell id="178SUdL-pKy2sh_oCuYC-76" value="Send Request?" style="rhombus;whiteSpace=wrap;html=1;fontColor=#393C56;fillColor=#F2CC8F;strokeColor=#E07A5F;hachureGap=4;fontFamily=Architects Daughter;fontSource=https%3A%2F%2Ffonts.googleapis.com%2Fcss%3Ffamily%3DArchitects%2BDaughter;fontSize=16;labelBackgroundColor=none;fontStyle=1;sketch=1;curveFitting=1;jiggle=2;" parent="1" vertex="1">
          <mxGeometry x="519.25" y="2100" width="120" height="80" as="geometry" />
        </mxCell>
        <mxCell id="178SUdL-pKy2sh_oCuYC-86" style="edgeStyle=orthogonalEdgeStyle;rounded=0;hachureGap=4;orthogonalLoop=1;jettySize=auto;html=1;exitX=0;exitY=0.5;exitDx=0;exitDy=0;entryX=1;entryY=0.5;entryDx=0;entryDy=0;strokeColor=#E07A5F;fontFamily=Architects Daughter;fontSource=https%3A%2F%2Ffonts.googleapis.com%2Fcss%3Ffamily%3DArchitects%2BDaughter;fontSize=16;fontColor=default;fillColor=#F2CC8F;labelBackgroundColor=none;fontStyle=1;sketch=1;curveFitting=1;jiggle=2;" parent="1" source="178SUdL-pKy2sh_oCuYC-84" target="178SUdL-pKy2sh_oCuYC-54" edge="1">
          <mxGeometry relative="1" as="geometry" />
        </mxCell>
        <mxCell id="178SUdL-pKy2sh_oCuYC-84" value="Save &amp;amp; Exit" style="rounded=1;whiteSpace=wrap;html=1;arcSize=40;fontColor=#393C56;fillColor=#F2CC8F;strokeColor=#E07A5F;hachureGap=4;fontFamily=Architects Daughter;fontSource=https%3A%2F%2Ffonts.googleapis.com%2Fcss%3Ffamily%3DArchitects%2BDaughter;fontSize=16;labelBackgroundColor=none;fontStyle=1;sketch=1;curveFitting=1;jiggle=2;" parent="1" vertex="1">
          <mxGeometry x="301" y="2120" width="120" height="40" as="geometry" />
        </mxCell>
        <mxCell id="lhAk6RJFCS4VyfI1gilV-3" value="Read Database" style="rounded=1;whiteSpace=wrap;html=1;arcSize=40;fontColor=#393C56;fillColor=#F2CC8F;strokeColor=#E07A5F;sketch=1;hachureGap=4;jiggle=2;curveFitting=1;fontFamily=Architects Daughter;fontSource=https%3A%2F%2Ffonts.googleapis.com%2Fcss%3Ffamily%3DArchitects%2BDaughter;fontSize=16;fontStyle=1;labelBackgroundColor=none;" parent="1" vertex="1">
          <mxGeometry x="160.75" y="320" width="120" height="40" as="geometry" />
        </mxCell>
        <mxCell id="lhAk6RJFCS4VyfI1gilV-4" value="" style="edgeStyle=orthogonalEdgeStyle;html=1;verticalAlign=bottom;endArrow=open;endSize=8;strokeColor=#E07A5F;rounded=0;sketch=1;hachureGap=4;jiggle=2;curveFitting=1;fontFamily=Architects Daughter;fontSource=https%3A%2F%2Ffonts.googleapis.com%2Fcss%3Ffamily%3DArchitects%2BDaughter;fontSize=16;fontStyle=1;labelBackgroundColor=none;fontColor=default;" parent="1" source="lhAk6RJFCS4VyfI1gilV-3" edge="1">
          <mxGeometry relative="1" as="geometry">
            <mxPoint x="221" y="400" as="targetPoint" />
          </mxGeometry>
        </mxCell>
        <mxCell id="lhAk6RJFCS4VyfI1gilV-9" style="edgeStyle=orthogonalEdgeStyle;rounded=0;sketch=1;hachureGap=4;jiggle=2;curveFitting=1;orthogonalLoop=1;jettySize=auto;html=1;exitX=0.5;exitY=0;exitDx=0;exitDy=0;entryX=0.5;entryY=1;entryDx=0;entryDy=0;strokeColor=#E07A5F;fontFamily=Architects Daughter;fontSource=https%3A%2F%2Ffonts.googleapis.com%2Fcss%3Ffamily%3DArchitects%2BDaughter;fontSize=16;fontColor=default;fillColor=#F2CC8F;labelBackgroundColor=none;fontStyle=1" parent="1" source="lhAk6RJFCS4VyfI1gilV-6" target="3_fbX6zJ1j63LrsjDhZ5-107" edge="1">
          <mxGeometry relative="1" as="geometry" />
        </mxCell>
        <mxCell id="lhAk6RJFCS4VyfI1gilV-6" value="Add All Available Courses" style="rounded=1;whiteSpace=wrap;html=1;arcSize=40;fontColor=#393C56;fillColor=#F2CC8F;strokeColor=#E07A5F;sketch=1;hachureGap=4;jiggle=2;curveFitting=1;fontFamily=Architects Daughter;fontSource=https%3A%2F%2Ffonts.googleapis.com%2Fcss%3Ffamily%3DArchitects%2BDaughter;fontSize=16;labelBackgroundColor=none;fontStyle=1" parent="1" vertex="1">
          <mxGeometry x="360" y="2040" width="120" height="40" as="geometry" />
        </mxCell>
      </root>
    </mxGraphModel>
  </diagram>
</mxfile>
